<svg width="347" height="677" viewBox="0 0 347 677" fill="none" xmlns="http://www.w3.org/2000/svg">
<path d="M186.579 141.607C192.765 141.607 197.779 136.578 197.779 130.375C197.779 124.171 192.765 119.142 186.579 119.142C180.394 119.142 175.379 124.171 175.379 130.375C175.379 136.578 180.394 141.607 186.579 141.607Z" fill="#0000E6"/>
<path d="M185.47 134.66C185.218 134.66 184.972 134.578 184.771 134.427L184.758 134.417L182.126 132.396C182.004 132.303 181.901 132.186 181.824 132.053C181.746 131.919 181.696 131.772 181.676 131.619C181.655 131.466 181.665 131.311 181.705 131.162C181.745 131.012 181.813 130.873 181.907 130.75C182 130.628 182.117 130.525 182.25 130.448C182.383 130.371 182.53 130.321 182.683 130.301C182.835 130.281 182.99 130.291 183.139 130.331C183.287 130.371 183.427 130.44 183.548 130.534L185.253 131.845L189.282 126.576C189.376 126.454 189.492 126.351 189.625 126.274C189.758 126.197 189.905 126.147 190.057 126.127C190.209 126.107 190.364 126.117 190.512 126.157C190.661 126.196 190.8 126.265 190.922 126.359L190.897 126.393L190.922 126.359C191.168 126.549 191.329 126.828 191.37 127.137C191.41 127.445 191.327 127.757 191.139 128.004L186.4 134.202C186.29 134.345 186.149 134.46 185.988 134.54C185.827 134.619 185.649 134.66 185.47 134.66V134.66Z" fill="white"/>
<path d="M186.579 174.442C192.765 174.442 197.779 169.413 197.779 163.209C197.779 157.005 192.765 151.976 186.579 151.976C180.394 151.976 175.379 157.005 175.379 163.209C175.379 169.413 180.394 174.442 186.579 174.442Z" fill="#0000E6"/>
<path d="M185.47 167.494C185.218 167.495 184.972 167.413 184.771 167.261L184.758 167.252L182.126 165.231C182.004 165.137 181.901 165.02 181.824 164.887C181.746 164.754 181.696 164.606 181.676 164.453C181.655 164.301 181.665 164.145 181.705 163.996C181.745 163.847 181.813 163.707 181.907 163.585C182 163.462 182.117 163.36 182.25 163.282C182.383 163.205 182.53 163.155 182.683 163.135C182.835 163.115 182.99 163.125 183.139 163.166C183.287 163.206 183.427 163.275 183.548 163.369L185.253 164.68L189.282 159.41C189.376 159.288 189.492 159.186 189.625 159.109C189.758 159.031 189.905 158.981 190.057 158.961C190.209 158.941 190.364 158.951 190.512 158.991C190.661 159.031 190.8 159.1 190.922 159.193L190.897 159.227L190.922 159.194C191.168 159.383 191.329 159.663 191.37 159.971C191.41 160.279 191.327 160.591 191.139 160.838L186.4 167.036C186.29 167.179 186.149 167.295 185.988 167.374C185.827 167.454 185.649 167.495 185.47 167.494V167.494Z" fill="white"/>
<path d="M192.61 212.461C198.796 212.461 203.81 207.432 203.81 201.228C203.81 195.024 198.796 189.995 192.61 189.995C186.425 189.995 181.41 195.024 181.41 201.228C181.41 207.432 186.425 212.461 192.61 212.461Z" fill="#0000E6"/>
<path d="M191.5 205.513C191.248 205.513 191.003 205.432 190.801 205.28L190.789 205.271L188.157 203.25C188.034 203.156 187.932 203.039 187.854 202.906C187.777 202.772 187.727 202.625 187.707 202.472C187.686 202.319 187.696 202.164 187.736 202.015C187.775 201.866 187.844 201.726 187.937 201.604C188.031 201.481 188.148 201.378 188.281 201.301C188.414 201.224 188.561 201.174 188.714 201.154C188.866 201.134 189.021 201.144 189.17 201.184C189.318 201.224 189.457 201.294 189.579 201.388L191.284 202.699L195.313 197.429C195.406 197.307 195.523 197.204 195.656 197.127C195.789 197.05 195.936 197 196.088 196.98C196.24 196.96 196.395 196.97 196.543 197.01C196.691 197.05 196.831 197.118 196.952 197.212L196.927 197.246L196.953 197.213C197.199 197.402 197.36 197.682 197.4 197.99C197.441 198.298 197.358 198.61 197.169 198.857L192.431 205.055C192.321 205.198 192.18 205.314 192.019 205.393C191.857 205.472 191.68 205.513 191.5 205.513V205.513Z" fill="white"/>
<path d="M248.074 333.536V332.536V330.48V329.48H249.074H263.029H263.044L263.06 329.48L263.062 329.48C263.263 329.487 269.465 329.685 275.245 322.651C279.594 317.358 283.674 308.015 284.657 291.533C285.64 275.051 283.521 251.498 275.538 217.873C253.981 127.066 271.959 46.8602 280.69 16.5818C281.076 15.2365 281.145 13.8194 280.892 12.4425C280.638 11.0657 280.069 9.76716 279.229 8.64934C278.389 7.53154 277.302 6.6252 276.053 6.00171C274.804 5.37822 273.428 5.05458 272.034 5.05625L272.032 5.05625L64.3727 5.05625C62.9518 5.05827 61.5513 5.39617 60.2848 6.04272C59.0184 6.68923 57.9215 7.62617 57.0833 8.77775C53.4986 13.7235 48.4855 23.3529 45.3392 40.9116L45.1626 41.8968L44.1776 41.7194L42.1597 41.356L41.1764 41.1789L41.3526 40.1954C44.6109 22.0116 49.8877 11.7999 53.8061 6.39449L53.8071 6.39311C55.0207 4.72492 56.6097 3.36702 58.4451 2.42987C60.2806 1.4927 62.3107 1.00277 64.3707 1.00001L64.372 1L272.032 1.00001H272.032V2.00001C273.901 1.9982 275.743 2.43212 277.416 3.26744C279.088 4.10276 280.543 5.31662 281.667 6.81312C282.791 8.30961 283.553 10.0477 283.892 11.8902C284.231 13.7326 284.138 15.6289 283.621 17.4292L248.074 333.536ZM248.074 333.536L249.074 333.536L262.954 333.534L248.074 333.536Z" fill="#CCCCCC" stroke="#E6E6E6" stroke-width="2"/>
<path d="M247.168 55.2345L247.167 55.2362C238.523 85.1909 220.726 164.606 242.062 254.465C258.283 322.798 250.606 351.097 240.886 362.841L240.116 362.203L240.886 362.841C234.442 370.625 227.279 371.066 225.779 371.066C225.694 371.066 225.626 371.063 225.575 371.06C225.562 371.059 225.548 371.058 225.538 371.057H21.1057C20.0771 371.059 19.052 370.937 18.0527 370.693C17.072 370.462 16.1227 370.113 15.2252 369.654C14.1442 369.116 13.1476 368.422 12.2664 367.595C10.9174 366.365 9.84363 364.862 9.11561 363.185C8.38715 361.508 8.02131 359.695 8.04214 357.866C8.04215 357.865 8.04216 357.863 8.04218 357.862L9.04211 357.874C9.05051 356.378 9.3429 354.897 9.90365 353.511L247.168 55.2345ZM247.168 55.2345C247.726 53.2856 247.826 51.2333 247.458 49.2393C247.091 47.2453 246.266 45.364 245.05 43.7438C243.833 42.1237 242.258 40.8089 240.448 39.9034C238.637 38.9979 236.642 38.5266 234.619 38.5267L26.9535 38.5267L26.9526 38.5267M247.168 55.2345L26.9526 38.5267M26.9526 38.5267C24.8934 38.5288 22.8639 39.0179 21.0289 39.9543C19.1939 40.8907 17.6053 42.2479 16.392 43.9154L16.3911 43.9167M26.9526 38.5267L16.3911 43.9167M16.3911 43.9167C7.77187 55.804 -9.57979 94.4766 9.86778 200.665C20.2432 257.338 20.0784 295.923 16.7007 321.287L16.7007 321.288M16.3911 43.9167L16.7007 321.288M16.7007 321.288C14.8061 335.566 11.8874 345.649 9.25633 352.42L16.7007 321.288ZM237.826 360.177L237.826 360.177C242.177 354.883 246.259 345.54 247.243 329.058C248.227 312.577 246.108 289.025 238.126 255.402C216.566 164.594 234.54 84.382 243.273 54.1029M237.826 360.177L244.456 49.7859C244.174 48.2579 243.542 46.8165 242.61 45.5756C241.677 44.3346 240.47 43.3279 239.083 42.6351C237.696 41.9422 236.168 41.5821 234.619 41.5832H26.9535M237.826 360.177C232.06 367.199 225.873 367.017 225.647 367.01L225.643 367.01L225.629 367.01H225.616H21.1037C19.6305 367.009 18.1794 366.647 16.8775 365.954C15.5756 365.261 14.4624 364.259 13.6354 363.034L13.6309 363.028C12.9054 361.972 12.418 360.77 12.2028 359.506C11.9875 358.241 12.0497 356.945 12.385 355.707L12.3883 355.695L12.3913 355.683C12.4775 355.33 12.5892 354.983 12.7257 354.646L12.7284 354.639L12.7311 354.633C15.7955 346.735 18.067 338.55 19.512 330.201C24.3985 303.477 25.2886 262.351 13.8509 199.933C-5.41027 94.7469 11.6816 57.3214 19.6633 46.3019M237.826 360.177L19.6633 46.3019M243.273 54.1029L244.234 54.38L243.272 54.1044C243.272 54.1039 243.273 54.1034 243.273 54.1029ZM243.273 54.1029C243.658 52.7585 243.726 51.3427 243.473 49.9673C243.219 48.5913 242.65 47.2934 241.81 46.1762C240.971 45.0591 239.884 44.1531 238.636 43.5296C237.388 42.9062 236.013 42.5822 234.619 42.5832L234.619 42.5832L26.9546 42.5832M26.9546 42.5832C26.955 42.5832 26.9553 42.5832 26.9556 42.5832L26.9535 41.5832M26.9546 42.5832C25.534 42.5863 24.1339 42.9244 22.8673 43.5704C21.6008 44.2162 20.5032 45.1518 19.6633 46.3019M26.9546 42.5832H26.9535V41.5832M26.9535 41.5832L19.6633 46.3019M8.9766 353.136C8.97589 353.137 8.97518 353.139 8.97447 353.141L9.25549 352.423L8.9766 353.136Z" fill="#C4C4C4" stroke="#E6E6E6" stroke-width="2"/>
<path d="M142.434 137.633H35.4425C33.2675 137.633 31.1816 136.767 29.6436 135.224C28.1057 133.682 27.2417 131.59 27.2417 129.408C27.2417 127.227 28.1057 125.135 29.6436 123.592C31.1816 122.05 33.2675 121.183 35.4425 121.183H142.434C144.609 121.183 146.695 122.05 148.232 123.592C149.77 125.135 150.634 127.227 150.634 129.408C150.634 131.59 149.77 133.682 148.232 135.224C146.695 136.767 144.609 137.633 142.434 137.633V137.633Z" fill="#CCCCCC"/>
<path d="M142.434 173.06H35.4425C33.2675 173.06 31.1816 172.193 29.6436 170.651C28.1057 169.108 27.2417 167.016 27.2417 164.835C27.2417 162.653 28.1057 160.561 29.6436 159.019C31.1816 157.477 33.2675 156.61 35.4425 156.61H142.434C144.609 156.61 146.695 157.477 148.232 159.019C149.77 160.561 150.634 162.653 150.634 164.835C150.634 167.016 149.77 169.108 148.232 170.651C146.695 172.193 144.609 173.06 142.434 173.06V173.06Z" fill="#CCCCCC"/>
<path d="M151.049 209.35H44.0577C41.8827 209.35 39.7968 208.484 38.2589 206.941C36.7209 205.399 35.8569 203.307 35.8569 201.125C35.8569 198.944 36.7209 196.852 38.2589 195.31C39.7968 193.767 41.8827 192.901 44.0577 192.901H151.049C153.224 192.901 155.31 193.767 156.848 195.31C158.386 196.852 159.25 198.944 159.25 201.125C159.25 203.307 158.386 205.399 156.848 206.941C155.31 208.484 153.224 209.35 151.049 209.35V209.35Z" fill="#CCCCCC"/>
<path d="M157.08 247.369H50.0885C47.9135 247.369 45.8276 246.503 44.2896 244.96C42.7517 243.418 41.8877 241.326 41.8877 239.144C41.8877 236.963 42.7517 234.871 44.2896 233.329C45.8276 231.786 47.9135 230.92 50.0885 230.92H157.08C159.255 230.92 161.34 231.786 162.878 233.329C164.416 234.871 165.28 236.963 165.28 239.144C165.28 241.326 164.416 243.418 162.878 244.96C161.34 246.503 159.255 247.369 157.08 247.369Z" fill="#CCCCCC"/>
<path d="M157.126 73.7702H80.2429C79.1653 73.7713 78.098 73.5593 77.102 73.1465C76.1061 72.7337 75.201 72.128 74.4386 71.3641C73.6762 70.6003 73.0714 69.6932 72.6588 68.6948C72.2461 67.6963 72.0337 66.6261 72.0337 65.5453C72.0337 64.4645 72.2461 63.3943 72.6588 62.3958C73.0714 61.3974 73.6762 60.4903 74.4386 59.7265C75.201 58.9626 76.1061 58.3569 77.102 57.9441C78.098 57.5313 79.1653 57.3193 80.2429 57.3204H157.126C159.301 57.3204 161.386 58.187 162.924 59.7294C164.462 61.2719 165.326 63.3639 165.326 65.5453C165.326 67.7267 164.462 69.8187 162.924 71.3611C161.386 72.9036 159.301 73.7702 157.126 73.7702Z" fill="#0000E6"/>
<path d="M199.503 250.377C205.688 250.377 210.703 245.348 210.703 239.144C210.703 232.941 205.688 227.912 199.503 227.912C193.317 227.912 188.303 232.941 188.303 239.144C188.303 245.348 193.317 250.377 199.503 250.377Z" fill="#CCCCCC"/>
<path d="M162.249 284.524H55.2574C53.0824 284.524 50.9965 283.658 49.4586 282.115C47.9206 280.573 47.0566 278.481 47.0566 276.299C47.0566 274.118 47.9206 272.026 49.4586 270.483C50.9965 268.941 53.0824 268.074 55.2574 268.074H162.249C164.424 268.074 166.509 268.941 168.047 270.483C169.585 272.026 170.449 274.118 170.449 276.299C170.449 278.481 169.585 280.573 168.047 282.115C166.509 283.658 164.424 284.524 162.249 284.524Z" fill="#CCCCCC"/>
<path d="M204.672 287.532C210.857 287.532 215.872 282.503 215.872 276.299C215.872 270.096 210.857 265.066 204.672 265.066C198.486 265.066 193.472 270.096 193.472 276.299C193.472 282.503 198.486 287.532 204.672 287.532Z" fill="#CCCCCC"/>
<path d="M321.45 471.839L321.451 471.838C325.717 469.432 328.855 465.428 330.18 460.706C331.504 455.984 330.907 450.928 328.519 446.647L328.518 446.645L266.54 335.828L266.539 335.826C264.141 331.55 260.149 328.401 255.437 327.072C250.726 325.743 245.681 326.342 241.41 328.739L241.409 328.739L105.684 405.093L105.683 405.094C101.418 407.5 98.2791 411.503 96.9547 416.226C95.6303 420.948 96.2275 426.004 98.6157 430.285L98.6165 430.287L160.594 541.104L160.595 541.106C162.993 545.382 166.985 548.531 171.697 549.86C176.409 551.189 181.453 550.59 185.724 548.193L185.726 548.192L321.45 471.839Z" fill="white" stroke="#999999" stroke-width="3"/>
<path d="M320.714 470.532L184.99 546.885C181.067 549.087 176.432 549.637 172.104 548.416C167.776 547.195 164.108 544.302 161.904 540.372L99.9257 429.555C97.7305 425.619 97.1815 420.971 98.399 416.631C99.6164 412.29 102.501 408.611 106.42 406.4L242.144 330.047C246.068 327.845 250.702 327.295 255.03 328.516C259.358 329.737 263.027 332.63 265.231 336.56L327.209 447.377C329.404 451.313 329.953 455.96 328.735 460.301C327.518 464.642 324.633 468.321 320.714 470.532ZM107.396 408.145C103.938 410.096 101.393 413.342 100.319 417.172C99.2444 421.002 99.7289 425.103 101.666 428.576L163.644 539.393C165.588 542.861 168.825 545.414 172.644 546.491C176.463 547.568 180.552 547.082 184.014 545.14L319.738 468.786C323.196 466.836 325.741 463.59 326.816 459.76C327.89 455.93 327.405 451.828 325.469 448.356L263.491 337.539C261.546 334.071 258.309 331.518 254.49 330.441C250.671 329.364 246.582 329.849 243.12 331.792L107.396 408.145Z" fill="#999999"/>
<path d="M245.329 372.004L176.831 410.538C176.236 410.889 175.53 411 174.857 410.849C174.183 410.698 173.591 410.297 173.202 409.725C173.011 409.423 172.883 409.085 172.827 408.732C172.771 408.379 172.787 408.018 172.874 407.672C172.961 407.325 173.118 407 173.335 406.716C173.551 406.432 173.823 406.195 174.134 406.021L243.861 366.795C247.291 367.527 247.326 370.881 245.329 372.004L245.329 372.004Z" fill="#CCCCCC"/>
<path d="M252.069 384.054L183.57 422.589C182.975 422.94 182.27 423.051 181.596 422.9C180.922 422.749 180.331 422.347 179.941 421.775C179.75 421.473 179.623 421.135 179.566 420.782C179.51 420.429 179.526 420.069 179.613 419.722C179.7 419.375 179.857 419.05 180.074 418.766C180.291 418.482 180.563 418.246 180.874 418.071L250.601 378.845C254.03 379.577 254.065 382.931 252.068 384.054L252.069 384.054Z" fill="#CCCCCC"/>
<path d="M172.6 437.78L151.695 449.54C151.012 449.924 150.206 450.02 149.452 449.807C148.699 449.594 148.06 449.091 147.677 448.407L133.839 423.665C133.457 422.98 133.361 422.171 133.573 421.415C133.785 420.66 134.287 420.019 134.97 419.634L155.875 407.874C156.558 407.491 157.364 407.395 158.117 407.608C158.871 407.82 159.509 408.324 159.893 409.008L173.731 433.75C174.113 434.435 174.208 435.244 173.997 435.999C173.785 436.755 173.283 437.395 172.6 437.78L172.6 437.78Z" fill="#CCCCCC"/>
<path d="M265.669 408.839L161.128 467.65C160.533 468.001 159.827 468.112 159.153 467.961C158.48 467.81 157.888 467.408 157.499 466.837C157.308 466.535 157.18 466.197 157.124 465.844C157.067 465.491 157.083 465.13 157.171 464.783C157.258 464.437 157.415 464.112 157.631 463.828C157.848 463.544 158.12 463.307 158.431 463.132L264.202 403.63C267.631 404.362 267.666 407.716 265.669 408.839Z" fill="#CCCCCC"/>
<path d="M272.41 420.893L167.869 479.704C167.274 480.055 166.568 480.166 165.895 480.015C165.221 479.864 164.629 479.462 164.24 478.89C164.049 478.588 163.921 478.251 163.865 477.898C163.809 477.545 163.825 477.184 163.912 476.837C163.999 476.49 164.156 476.165 164.373 475.881C164.589 475.597 164.861 475.361 165.172 475.186L270.943 415.683C274.372 416.415 274.407 419.769 272.41 420.893V420.893Z" fill="#CCCCCC"/>
<path d="M279.147 432.939L174.606 491.75C174.011 492.101 173.305 492.212 172.631 492.061C171.958 491.91 171.366 491.508 170.977 490.936C170.786 490.634 170.658 490.297 170.602 489.943C170.545 489.59 170.561 489.23 170.649 488.883C170.736 488.536 170.893 488.211 171.109 487.927C171.326 487.643 171.598 487.407 171.909 487.232L277.68 427.729C281.109 428.461 281.144 431.815 279.147 432.939V432.939Z" fill="#CCCCCC"/>
<path d="M285.888 444.992L181.347 503.803C180.752 504.154 180.046 504.265 179.373 504.114C178.699 503.963 178.107 503.561 177.718 502.989C177.527 502.687 177.399 502.349 177.343 501.996C177.287 501.643 177.303 501.283 177.39 500.936C177.477 500.589 177.634 500.264 177.851 499.98C178.067 499.696 178.34 499.46 178.65 499.285L284.421 439.782C287.85 440.514 287.886 443.868 285.888 444.992H285.888Z" fill="#CCCCCC"/>
<path d="M292.625 457.038L188.085 515.849C187.49 516.2 186.784 516.311 186.11 516.16C185.436 516.009 184.845 515.607 184.455 515.036C184.264 514.734 184.137 514.396 184.08 514.043C184.024 513.69 184.04 513.329 184.127 512.983C184.214 512.636 184.371 512.311 184.588 512.027C184.805 511.743 185.077 511.506 185.388 511.331L291.158 451.829C294.587 452.561 294.623 455.915 292.625 457.038V457.038Z" fill="#CCCCCC"/>
<path d="M274.387 502.183C274.956 500.923 275.243 499.554 275.228 498.172C275.212 496.789 274.895 495.426 274.297 494.18C273.7 492.934 272.838 491.834 271.771 490.958C270.704 490.083 269.458 489.452 268.122 489.111L265.279 455.621L251.606 466.439L256.402 496.583C255.98 498.873 256.41 501.237 257.61 503.23C258.811 505.223 260.698 506.704 262.915 507.395C265.132 508.085 267.524 507.936 269.638 506.975C271.753 506.014 273.442 504.309 274.387 502.183V502.183Z" fill="#FFB8B8"/>
<path d="M265.538 485.604L254.183 486.962C253.606 487.031 253.021 486.98 252.465 486.812C251.908 486.643 251.393 486.362 250.95 485.984C250.507 485.607 250.147 485.142 249.892 484.619C249.637 484.095 249.492 483.524 249.467 482.942L247.811 444.522L226.286 385.548C225.424 383.718 225.03 381.701 225.142 379.68C225.254 377.659 225.867 375.698 226.926 373.975C227.454 373.142 228.058 372.361 228.73 371.641C230.054 370.21 231.704 369.122 233.539 368.469C235.373 367.815 237.338 367.616 239.266 367.889C241.252 368.154 243.146 368.89 244.791 370.037C246.437 371.183 247.786 372.707 248.726 374.481L262.763 403.982C268.634 416.321 271.407 429.914 270.838 443.574L269.255 481.58C269.213 482.574 268.823 483.522 268.154 484.257C267.484 484.992 266.578 485.466 265.594 485.597L265.538 485.604Z" fill="#0000E6"/>
<path d="M305.864 651.652L295.336 656.286L272.502 617.765L288.04 610.925L305.864 651.652Z" fill="#FFB8B8"/>
<path d="M313.029 660.705L279.083 675.649L278.894 675.219C278.133 673.478 277.72 671.605 277.68 669.705C277.641 667.805 277.975 665.915 278.663 664.145C279.351 662.374 280.381 660.756 281.692 659.385C283.004 658.013 284.572 656.914 286.307 656.15L286.308 656.15L307.041 647.022L313.029 660.705Z" fill="#333333"/>
<path d="M164.523 664.471H153.026L147.556 619.993L164.525 619.994L164.523 664.471Z" fill="#FFB8B8"/>
<path d="M167.455 675.649L130.382 675.648V675.178C130.382 673.277 130.755 671.395 131.48 669.639C132.205 667.883 133.268 666.288 134.608 664.944C135.948 663.6 137.539 662.534 139.29 661.807C141.04 661.08 142.917 660.706 144.812 660.706H144.813L167.455 660.706L167.455 675.649Z" fill="#333333"/>
<path d="M276.463 649.266L212.414 505.915C212.299 505.646 212.103 505.42 211.853 505.268C211.604 505.116 211.314 505.046 211.023 505.066C210.732 505.087 210.454 505.198 210.229 505.384C210.003 505.57 209.841 505.821 209.765 506.103L170.74 644.563C170.482 645.532 169.888 646.377 169.065 646.946C168.241 647.515 167.242 647.77 166.247 647.665L144.934 645.527C143.836 645.412 142.826 644.871 142.119 644.021C141.411 643.171 141.062 642.078 141.145 640.973C147.924 556.41 158.611 476.598 190.625 424.351L190.796 424.073L239.22 433.596L303.87 640.068C304.189 641.131 304.081 642.278 303.568 643.262C303.055 644.246 302.178 644.99 301.125 645.335L281.63 651.619C280.631 651.945 279.547 651.884 278.591 651.448C277.635 651.013 276.876 650.234 276.463 649.266V649.266Z" fill="#333333"/>
<path d="M214.201 350.92C226.922 350.92 237.235 340.577 237.235 327.818C237.235 315.059 226.922 304.717 214.201 304.717C201.48 304.717 191.167 315.059 191.167 327.818C191.167 340.577 201.48 350.92 214.201 350.92Z" fill="#FFB8B8"/>
<path d="M187.649 428.35L187.356 428.29L187.287 427.998C184.183 414.856 184.109 400.514 187.067 385.372C188.567 377.633 192.742 370.673 198.856 365.718C204.971 360.763 212.632 358.13 220.492 358.285V358.285C229.02 358.458 237.16 361.894 243.245 367.888C249.331 373.882 252.903 381.982 253.23 390.531C254.217 416.575 243.605 439.154 243.498 439.379L243.34 439.71L187.649 428.35Z" fill="#0000E6"/>
<path d="M125.901 472.3C127.265 472.098 128.568 471.598 129.719 470.836C130.869 470.075 131.839 469.069 132.56 467.89C133.282 466.712 133.736 465.389 133.892 464.015C134.049 462.641 133.903 461.25 133.465 459.939L159.995 439.403L143.523 433.735L120.854 454.105C118.707 454.989 116.957 456.632 115.937 458.723C114.917 460.814 114.697 463.208 115.32 465.451C115.942 467.694 117.363 469.63 119.313 470.892C121.263 472.154 123.607 472.655 125.901 472.3V472.3Z" fill="#FFB8B8"/>
<path d="M140.392 456.813C139.528 457.325 138.511 457.51 137.522 457.336C136.534 457.161 135.641 456.637 135.004 455.86L127.716 447.022C127.345 446.573 127.072 446.052 126.911 445.492C126.751 444.932 126.708 444.344 126.784 443.767C126.861 443.189 127.056 442.634 127.356 442.135C127.657 441.636 128.057 441.205 128.531 440.869L159.837 418.664L197.61 368.576C198.677 366.857 200.154 365.433 201.909 364.433C203.663 363.433 205.639 362.888 207.657 362.847C208.64 362.841 209.622 362.927 210.589 363.104V363.104C212.506 363.446 214.312 364.247 215.854 365.44C217.395 366.633 218.626 368.182 219.441 369.955C220.294 371.773 220.703 373.769 220.633 375.777C220.563 377.785 220.017 379.747 219.039 381.501L191.07 426.929L191.008 427.028L140.392 456.813Z" fill="#0000E6"/>
<path d="M218.32 326.385C216.622 323.584 212.876 322.792 209.624 323.112C206.371 323.432 203.208 324.578 199.94 324.553C190.865 324.482 183.86 313.39 187.676 305.132C190.805 298.359 198.619 295.385 205.688 293.051C220.51 288.158 237.535 283.456 250.985 291.391C255.271 293.994 258.787 297.698 261.168 302.119C263.549 306.541 264.711 311.52 264.532 316.543C264.229 322.787 261.845 329.202 263.861 335.117C266.188 341.942 273.565 345.604 280.536 347.375C292.757 350.48 305.642 349.98 317.938 352.765C330.235 355.55 342.836 362.945 346.151 375.143C348.328 383.156 346.056 391.781 342.294 399.179C338.455 406.727 333.121 413.41 326.617 418.818C320.114 424.226 312.578 428.245 304.471 430.63C296.364 433.015 287.857 433.715 279.472 432.687C271.086 431.659 262.997 428.925 255.702 424.653C240.836 415.947 230.103 401.233 223.704 385.204C220.076 375.855 217.522 366.121 216.091 356.191C214.658 346.896 215.874 337.502 218.47 328.464C218.592 328.127 218.643 327.767 218.617 327.408C218.591 327.05 218.49 326.701 218.32 326.385Z" fill="#333333"/>
<path d="M301.418 676.999H111.883C111.619 676.999 111.365 676.894 111.178 676.706C110.991 676.519 110.886 676.264 110.886 675.999C110.886 675.734 110.991 675.479 111.178 675.292C111.365 675.104 111.619 674.999 111.883 674.999H301.418C301.682 674.999 301.936 675.104 302.123 675.292C302.31 675.479 302.415 675.734 302.415 675.999C302.415 676.264 302.31 676.519 302.123 676.706C301.936 676.894 301.682 676.999 301.418 676.999Z" fill="#CCCCCC"/>
</svg>
