<svg width="333" height="675" viewBox="0 0 333 675" fill="none" xmlns="http://www.w3.org/2000/svg">
<path d="M301.047 352.86H53.6822C45.2937 352.851 37.2515 349.523 31.32 343.607C25.3885 337.691 22.052 329.67 22.0425 321.304V31.5566C22.052 23.1902 25.3885 15.1691 31.32 9.25316C37.2515 3.33719 45.2937 0.00945072 53.6822 0H283.815L332.687 38.8519V321.304C332.677 329.67 329.341 337.691 323.409 343.607C317.478 349.523 309.435 352.851 301.047 352.86V352.86Z" fill="#E6E6E6"/>
<path d="M53.6822 9.08447C47.7086 9.09119 41.9816 11.4609 37.7576 15.6738C33.5336 19.8867 31.1576 25.5987 31.1509 31.5566V321.304C31.1576 327.262 33.5336 332.974 37.7576 337.187C41.9816 341.399 47.7086 343.769 53.6822 343.776H301.047C307.021 343.769 312.748 341.399 316.972 337.187C321.195 332.974 323.571 327.262 323.578 321.304V43.2283L280.629 9.08447H53.6822Z" fill="white"/>
<path d="M252.935 93.3352H140.313C139.621 93.3352 138.936 93.1993 138.296 92.9352C137.657 92.6711 137.076 92.284 136.587 91.7961C136.098 91.3081 135.71 90.7288 135.445 90.0912C135.18 89.4537 135.044 88.7703 135.044 88.0802C135.044 87.3901 135.18 86.7068 135.445 86.0692C135.71 85.4316 136.098 84.8523 136.587 84.3644C137.076 83.8764 137.657 83.4893 138.296 83.2252C138.936 82.9611 139.621 82.8252 140.313 82.8252H252.935C253.626 82.8252 254.312 82.9611 254.951 83.2252C255.59 83.4893 256.171 83.8764 256.66 84.3644C257.149 84.8523 257.538 85.4316 257.802 86.0692C258.067 86.7068 258.203 87.3901 258.203 88.0802C258.203 88.7703 258.067 89.4537 257.802 90.0912C257.538 90.7288 257.149 91.3081 256.66 91.7961C256.171 92.284 255.59 92.6711 254.951 92.9352C254.312 93.1993 253.626 93.3352 252.935 93.3352V93.3352Z" fill="#CCCCCC"/>
<path d="M274.669 111.071H140.313C138.915 111.071 137.575 110.517 136.587 109.532C135.599 108.546 135.044 107.21 135.044 105.816C135.044 104.422 135.599 103.085 136.587 102.1C137.575 101.114 138.915 100.561 140.313 100.561H274.669C276.066 100.561 277.406 101.114 278.394 102.1C279.382 103.085 279.937 104.422 279.937 105.816C279.937 107.21 279.382 108.546 278.394 109.532C277.406 110.517 276.066 111.071 274.669 111.071Z" fill="#CCCCCC"/>
<path d="M252.935 172.817H140.313C138.915 172.817 137.575 172.264 136.587 171.278C135.599 170.293 135.044 168.956 135.044 167.562C135.044 166.169 135.599 164.832 136.587 163.847C137.575 162.861 138.915 162.307 140.313 162.307H252.935C254.332 162.307 255.672 162.861 256.66 163.847C257.648 164.832 258.203 166.169 258.203 167.562C258.203 168.956 257.648 170.293 256.66 171.278C255.672 172.264 254.332 172.817 252.935 172.817Z" fill="#CCCCCC"/>
<path d="M274.669 190.553H140.313C138.915 190.553 137.575 189.999 136.587 189.014C135.599 188.028 135.044 186.692 135.044 185.298C135.044 183.904 135.599 182.568 136.587 181.582C137.575 180.597 138.915 180.043 140.313 180.043H274.669C276.066 180.043 277.406 180.597 278.394 181.582C279.382 182.568 279.937 183.904 279.937 185.298C279.937 186.692 279.382 188.028 278.394 189.014C277.406 189.999 276.066 190.553 274.669 190.553Z" fill="#CCCCCC"/>
<path d="M252.935 252.3H140.313C138.915 252.3 137.575 251.746 136.587 250.76C135.599 249.775 135.044 248.438 135.044 247.045C135.044 245.651 135.599 244.314 136.587 243.329C137.575 242.343 138.915 241.79 140.313 241.79H252.935C254.332 241.79 255.672 242.343 256.66 243.329C257.648 244.314 258.203 245.651 258.203 247.045C258.203 248.438 257.648 249.775 256.66 250.76C255.672 251.746 254.332 252.3 252.935 252.3Z" fill="#CCCCCC"/>
<path d="M274.669 270.035H140.313C138.915 270.035 137.575 269.482 136.587 268.496C135.599 267.511 135.044 266.174 135.044 264.78C135.044 263.387 135.599 262.05 136.587 261.065C137.575 260.079 138.915 259.525 140.313 259.525H274.669C276.066 259.525 277.406 260.079 278.394 261.065C279.382 262.05 279.937 263.387 279.937 264.78C279.937 266.174 279.382 267.511 278.394 268.496C277.406 269.482 276.066 270.035 274.669 270.035V270.035Z" fill="#CCCCCC"/>
<path d="M93.414 115.522C103.699 115.522 112.036 107.206 112.036 96.9481C112.036 86.6902 103.699 78.3745 93.414 78.3745C83.1291 78.3745 74.7915 86.6902 74.7915 96.9481C74.7915 107.206 83.1291 115.522 93.414 115.522Z" fill="#0000E6"/>
<path d="M91.569 104.033C91.1501 104.034 90.7423 103.899 90.4071 103.648L90.3863 103.632L86.0098 100.293C85.6009 99.9801 85.3334 99.5178 85.2662 99.008C85.1989 98.4983 85.3372 97.9827 85.6509 97.5747C85.9645 97.1666 86.4278 96.8994 86.9389 96.8319C87.4499 96.7643 87.967 96.9019 88.3764 97.2144L91.2112 99.3825L97.9099 90.6663C98.0652 90.4642 98.2589 90.2946 98.4799 90.1672C98.701 90.0398 98.945 89.957 99.1981 89.9237C99.4512 89.8903 99.7085 89.907 99.9551 89.9728C100.202 90.0386 100.433 90.1522 100.636 90.3072L100.636 90.3076L100.595 90.3652L100.637 90.3076C101.046 90.6209 101.313 91.0832 101.381 91.5929C101.448 92.1027 101.31 92.6183 100.997 93.0267L93.1177 103.274C92.9354 103.51 92.701 103.702 92.4328 103.833C92.1645 103.964 91.8695 104.032 91.5708 104.031L91.569 104.033Z" fill="white"/>
<path d="M95.332 195.004C105.617 195.004 113.954 186.688 113.954 176.43C113.954 166.172 105.617 157.857 95.332 157.857C85.0471 157.857 76.7095 166.172 76.7095 176.43C76.7095 186.688 85.0471 195.004 95.332 195.004Z" fill="#CCCCCC"/>
<path d="M93.414 274.486C103.699 274.486 112.036 266.17 112.036 255.912C112.036 245.655 103.699 237.339 93.414 237.339C83.1291 237.339 74.7915 245.655 74.7915 255.912C74.7915 266.17 83.1291 274.486 93.414 274.486Z" fill="#CCCCCC"/>
<path d="M332.341 42.971H294.058C291.263 42.971 288.583 41.8637 286.607 39.8927C284.631 37.9217 283.521 35.2485 283.521 32.461V4.25992C283.521 4.13645 283.555 4.01547 283.621 3.91088C283.687 3.80628 283.781 3.72229 283.892 3.66854C284.004 3.61479 284.128 3.59346 284.251 3.60698C284.374 3.62051 284.491 3.66835 284.588 3.74502L332.75 41.7993C332.857 41.884 332.935 41.9998 332.974 42.1308C333.012 42.2617 333.008 42.4013 332.963 42.5301C332.918 42.6589 332.834 42.7706 332.723 42.8496C332.611 42.9286 332.478 42.9711 332.341 42.971Z" fill="#E6E6E6"/>
<path d="M203.097 467.323L203.098 467.322C207.905 466.306 212.112 463.43 214.797 459.323C217.481 455.215 218.422 450.213 217.414 445.414L217.413 445.412L191.161 321.192L191.161 321.19C190.141 316.393 187.256 312.196 183.139 309.52C179.022 306.843 174.009 305.905 169.201 306.91L169.199 306.911L16.2118 339.073L16.2102 339.074C11.4036 340.09 7.19628 342.966 4.51206 347.073C1.82774 351.181 0.88628 356.183 1.89493 360.982L1.89528 360.984L28.1476 485.204L28.148 485.206C29.1674 490.003 32.0529 494.2 36.1698 496.876C40.2866 499.553 45.2992 500.491 50.1079 499.485L50.1096 499.485L203.097 467.323Z" fill="white" stroke="#999999" stroke-width="3"/>
<path d="M202.788 465.855L49.801 498.017C45.3799 498.941 40.7717 498.079 36.9874 495.619C33.2031 493.158 30.5519 489.302 29.6152 484.894L3.36286 360.674C2.43616 356.264 3.30101 351.668 5.76769 347.894C8.23436 344.12 12.1014 341.475 16.5204 340.541L169.508 308.379C173.929 307.454 178.537 308.317 182.321 310.777C186.105 313.237 188.757 317.094 189.693 321.502L215.946 445.722C216.872 450.132 216.008 454.728 213.541 458.502C211.074 462.276 207.207 464.921 202.788 465.855ZM16.9339 342.497C13.0347 343.322 9.62265 345.655 7.44617 348.985C5.2697 352.315 4.50657 356.371 5.32422 360.262L31.5766 484.482C32.4031 488.371 34.7424 491.774 38.0815 493.945C41.4205 496.115 45.4866 496.877 49.3876 496.061L202.375 463.899C206.274 463.074 209.686 460.741 211.862 457.411C214.039 454.081 214.802 450.025 213.984 446.134L187.732 321.914C186.906 318.025 184.566 314.622 181.227 312.451C177.888 310.281 173.822 309.52 169.921 310.335L16.9339 342.497Z" fill="#999999"/>
<path d="M160.002 349.338L82.7915 365.57C82.1158 365.726 81.4058 365.621 80.805 365.275C80.2042 364.929 79.7574 364.369 79.5549 363.707C79.4623 363.362 79.4412 363.002 79.4929 362.648C79.5445 362.295 79.6678 361.956 79.8552 361.651C80.0427 361.347 80.2903 361.084 80.5831 360.878C80.8758 360.672 81.2075 360.528 81.558 360.454L160.154 343.931C163.222 345.656 162.253 348.865 160.001 349.338L160.002 349.338Z" fill="#CCCCCC"/>
<path d="M162.857 362.845L85.646 379.077C84.9703 379.234 84.2603 379.128 83.6595 378.783C83.0587 378.437 82.6119 377.877 82.4094 377.215C82.3169 376.87 82.2957 376.51 82.3474 376.156C82.399 375.803 82.5223 375.463 82.7097 375.159C82.8971 374.855 83.1448 374.591 83.4376 374.386C83.7303 374.18 84.0621 374.036 84.4125 373.962L163.008 357.439C166.077 359.164 165.107 362.372 162.856 362.845L162.857 362.845Z" fill="#CCCCCC"/>
<path d="M70.5806 390.277L47.0167 395.231C46.2471 395.392 45.445 395.242 44.7863 394.814C44.1275 394.385 43.6661 393.714 43.5031 392.947L37.6418 365.212C37.4804 364.445 37.6309 363.645 38.0603 362.988C38.4896 362.331 39.1628 361.871 39.932 361.708L63.496 356.754C64.2655 356.594 65.0675 356.744 65.7262 357.172C66.3848 357.6 66.8463 358.271 67.0095 359.038L72.8708 386.773C73.0322 387.54 72.8817 388.34 72.4523 388.997C72.0229 389.654 71.3498 390.115 70.5806 390.277V390.277Z" fill="#CCCCCC"/>
<path d="M168.477 390.55L50.6396 415.323C49.964 415.479 49.254 415.374 48.6532 415.028C48.0524 414.682 47.6056 414.122 47.4031 413.46C47.3105 413.115 47.2894 412.755 47.341 412.401C47.3926 412.048 47.5159 411.709 47.7034 411.404C47.8908 411.1 48.1384 410.837 48.4312 410.631C48.724 410.425 49.0557 410.281 49.4062 410.207L168.63 385.143C171.698 386.868 170.729 390.076 168.477 390.55V390.55Z" fill="#CCCCCC"/>
<path d="M171.333 404.061L53.4951 428.834C52.8194 428.991 52.1094 428.885 51.5086 428.54C50.9078 428.194 50.461 427.634 50.2586 426.972C50.166 426.627 50.1449 426.267 50.1965 425.913C50.2481 425.56 50.3714 425.22 50.5588 424.916C50.7463 424.611 50.9939 424.348 51.2867 424.143C51.5794 423.937 51.9112 423.793 52.2616 423.719L171.485 398.655C174.554 400.38 173.584 403.588 171.333 404.061Z" fill="#CCCCCC"/>
<path d="M174.187 417.564L56.3491 442.337C55.6734 442.494 54.9634 442.388 54.3626 442.043C53.7618 441.697 53.315 441.136 53.1126 440.475C53.02 440.13 52.9989 439.769 53.0505 439.416C53.1021 439.063 53.2254 438.723 53.4128 438.419C53.6003 438.114 53.8479 437.851 54.1407 437.646C54.4334 437.44 54.7652 437.296 55.1156 437.222L174.339 412.158C177.408 413.883 176.438 417.091 174.187 417.564V417.564Z" fill="#CCCCCC"/>
<path d="M177.042 431.075L59.2046 455.848C58.5289 456.004 57.8189 455.899 57.2181 455.553C56.6173 455.207 56.1705 454.647 55.968 453.985C55.8754 453.64 55.8543 453.28 55.906 452.926C55.9576 452.573 56.0809 452.234 56.2683 451.929C56.4557 451.625 56.7034 451.362 56.9962 451.156C57.2889 450.95 57.6207 450.806 57.9711 450.732L177.195 425.668C180.263 427.393 179.293 430.601 177.042 431.075V431.075Z" fill="#CCCCCC"/>
<path d="M179.896 444.579L62.0581 469.352C61.3824 469.508 60.6724 469.403 60.0716 469.057C59.4708 468.711 59.024 468.151 58.8216 467.489C58.729 467.144 58.7078 466.784 58.7595 466.43C58.8111 466.077 58.9344 465.738 59.1218 465.433C59.3093 465.129 59.5569 464.866 59.8497 464.66C60.1424 464.454 60.4741 464.31 60.8246 464.236L180.048 439.172C183.117 440.897 182.147 444.105 179.896 444.579V444.579Z" fill="#CCCCCC"/>
<path d="M200.696 382.736C200.429 383.221 200.2 383.725 200.012 384.246L151.771 396.185L143.378 387.526L128.621 398.45L141.984 415.22C143.063 416.574 144.554 417.543 146.233 417.981C147.912 418.418 149.687 418.301 151.293 417.647L203.639 396.313C205.36 397.576 207.425 398.287 209.561 398.351C211.696 398.414 213.801 397.828 215.594 396.67C217.387 395.512 218.785 393.837 219.6 391.868C220.416 389.898 220.611 387.728 220.159 385.645C219.708 383.562 218.631 381.666 217.073 380.208C215.514 378.751 213.548 377.801 211.435 377.485C209.322 377.169 207.163 377.503 205.245 378.441C203.327 379.379 201.74 380.877 200.697 382.736L200.696 382.736Z" fill="#A0616A"/>
<path d="M36.0329 488.987C37.5368 488.523 38.9206 487.737 40.0868 486.683C41.2531 485.628 42.1733 484.332 42.7828 482.884C43.3922 481.437 43.6761 479.874 43.6143 478.305C43.5526 476.736 43.1467 475.2 42.4254 473.805L75.6237 381.774L52.5686 377.699L27.1853 469.444C24.9154 470.808 23.2261 472.955 22.4373 475.478C21.6486 478.001 21.8153 480.726 22.9059 483.135C23.9965 485.544 25.9351 487.47 28.3545 488.548C30.7739 489.627 33.5059 489.783 36.0329 488.987V488.987Z" fill="#A0616A"/>
<path d="M71.4069 398.111L48.6436 389.397C47.996 389.149 47.4095 388.765 46.9241 388.271C46.4388 387.776 46.066 387.183 45.8311 386.532C45.5962 385.881 45.5047 385.187 45.5629 384.498C45.6211 383.808 45.8277 383.14 46.1684 382.537L58.11 361.42C59.4009 358.122 61.95 355.47 65.1985 354.044C68.447 352.618 72.1299 352.535 75.4397 353.813C78.7495 355.091 81.4162 357.626 82.8551 360.862C84.294 364.098 84.3878 367.77 83.1158 371.075L77.8485 394.663C77.6975 395.339 77.4023 395.974 76.9831 396.525C76.5639 397.076 76.0304 397.531 75.4191 397.858C74.8078 398.185 74.133 398.377 73.4407 398.421C72.7483 398.464 72.0546 398.358 71.4069 398.111V398.111Z" fill="#0000E6"/>
<path d="M122.787 661.771L135.074 661.77L140.919 614.501L122.785 614.502L122.787 661.771Z" fill="#A0616A"/>
<path d="M119.652 657.77L143.85 657.769H143.851C145.876 657.769 147.881 658.167 149.752 658.94C151.623 659.713 153.323 660.845 154.755 662.274C156.187 663.702 157.323 665.397 158.098 667.263C158.873 669.129 159.272 671.129 159.272 673.149V673.649L119.653 673.65L119.652 657.77Z" fill="#333333"/>
<path d="M53.6324 661.771L65.9198 661.77L71.7648 614.501L53.6304 614.502L53.6324 661.771Z" fill="#A0616A"/>
<path d="M50.498 657.77L74.6958 657.769H74.6968C76.7219 657.769 78.7272 658.167 80.5981 658.94C82.4691 659.713 84.1691 660.845 85.6011 662.274C87.033 663.702 88.1689 665.397 88.9439 667.263C89.7188 669.129 90.1177 671.129 90.1177 673.149V673.649L50.4988 673.65L50.498 657.77Z" fill="#333333"/>
<path d="M66.5139 642.746H50.9646C50.3543 642.745 49.7504 642.622 49.1894 642.382C48.6283 642.143 48.1219 641.792 47.7007 641.351C47.2796 640.911 46.9525 640.39 46.7391 639.819C46.5258 639.249 46.4307 638.642 46.4597 638.033L53.8455 479.764L54.3109 479.751L129.398 477.799L144.091 636.159C144.147 636.753 144.085 637.352 143.907 637.921C143.73 638.491 143.44 639.019 143.056 639.476C142.671 639.933 142.2 640.309 141.669 640.582C141.137 640.856 140.557 641.021 139.961 641.068L122.496 642.461C121.398 642.549 120.307 642.233 119.427 641.573C118.547 640.914 117.939 639.956 117.718 638.881L95.3776 526.149C95.3167 525.807 95.1346 525.497 94.8644 525.277C94.5943 525.057 94.254 524.941 93.9053 524.95H93.8992C93.5494 524.943 93.2084 525.061 92.9386 525.283C92.6688 525.505 92.4881 525.817 92.4296 526.161L70.9391 639.116C70.7356 640.138 70.1835 641.058 69.3767 641.719C68.57 642.381 67.5584 642.744 66.5139 642.746V642.746Z" fill="#333333"/>
<path d="M94.9968 338.608C108.592 338.608 119.613 327.616 119.613 314.057C119.613 300.497 108.592 289.505 94.9968 289.505C81.4018 289.505 70.3809 300.497 70.3809 314.057C70.3809 327.616 81.4018 338.608 94.9968 338.608Z" fill="#A0616A"/>
<path d="M86.7424 498.312C75.01 498.312 62.9592 495.236 52.9691 486.142C52.4375 485.661 52.0271 485.062 51.7712 484.393C51.5153 483.725 51.4211 483.005 51.4963 482.293C52.5656 472.711 57.7525 423.236 54.8314 390.186C54.2614 384.013 55.1377 377.792 57.3911 372.015C59.6444 366.237 63.2133 361.061 67.816 356.895C72.3381 352.738 77.7668 349.686 83.6739 347.98C89.581 346.274 95.8047 345.961 101.854 347.065H101.854C102.161 347.119 102.467 347.177 102.774 347.236C122.482 351.04 136.175 369.231 134.625 389.55C132.364 419.198 130.337 459.302 133.52 481.981C133.652 482.909 133.489 483.855 133.055 484.686C132.621 485.517 131.938 486.192 131.1 486.616C123.859 490.265 105.717 498.312 86.7424 498.312Z" fill="#0000E6"/>
<path d="M118.864 399.877C118.286 399.494 117.798 398.991 117.433 398.402C117.069 397.814 116.835 397.154 116.75 396.467L113.751 372.487C112.799 369.076 113.241 365.429 114.982 362.343C116.722 359.258 119.618 356.987 123.034 356.028C126.451 355.069 130.11 355.5 133.208 357.227C136.306 358.954 138.591 361.836 139.562 365.241L149.441 387.394C149.722 388.026 149.864 388.711 149.857 389.403C149.849 390.095 149.692 390.777 149.396 391.403C149.1 392.029 148.673 392.584 148.143 393.03C147.612 393.476 146.992 393.803 146.324 393.989L122.834 400.508C122.166 400.694 121.465 400.734 120.78 400.625C120.095 400.516 119.441 400.261 118.864 399.877V399.877Z" fill="#0000E6"/>
<path d="M86.4035 338.261C84.0736 338.305 81.7582 337.887 79.5911 337.032C78.6376 336.666 77.6478 336.364 76.696 335.998C68.2906 332.759 62.7537 323.831 62.5554 314.846C62.3571 305.861 67.0224 297.14 73.95 291.392C80.8775 285.645 89.8504 282.695 98.8353 282.012C108.514 281.277 119.411 283.725 124.82 291.764C126.259 293.904 127.266 296.5 126.413 299.084C126.157 299.863 125.701 300.562 125.09 301.111C122.674 303.254 120.267 301.642 117.805 301.5C114.421 301.304 111.381 304.036 110.289 307.237C109.196 310.437 109.677 313.961 110.559 317.225C111.231 319.19 111.655 321.23 111.82 323.299C111.891 324.336 111.696 325.375 111.252 326.315C110.808 327.256 110.13 328.069 109.284 328.675C107.169 329.95 104.392 329.212 102.276 327.939C100.16 326.667 98.3318 324.897 96.0463 323.96C93.7608 323.024 90.6902 323.231 89.3599 325.308C88.9371 326.064 88.651 326.888 88.5146 327.742C87.322 333.162 87.5961 332.842 86.4035 338.261V338.261Z" fill="#333333"/>
<path d="M195.091 675.001H4.6663C4.40049 675.001 4.14557 674.895 3.95761 674.708C3.76965 674.52 3.66406 674.266 3.66406 674.001C3.66406 673.736 3.76965 673.481 3.95761 673.294C4.14557 673.106 4.40049 673.001 4.6663 673.001H195.091C195.357 673.001 195.612 673.106 195.8 673.294C195.988 673.481 196.093 673.736 196.093 674.001C196.093 674.266 195.988 674.52 195.8 674.708C195.612 674.895 195.357 675.001 195.091 675.001Z" fill="#CCCCCC"/>
</svg>
