<svg width="349" height="679" viewBox="0 0 349 679" fill="none" xmlns="http://www.w3.org/2000/svg">
<path d="M47 40L24 46L14.5 56L5.5 87V143.5L20 239.5L23 311.5L10.5 363L20 372H130.5H188L268 336.5L277.5 329L288 311.5V255L271 174V91.5L285.5 14L277 5.5H60L47 40Z" fill="white"/>
<path d="M188.579 143.607C194.765 143.607 199.779 138.578 199.779 132.374C199.779 126.171 194.765 121.142 188.579 121.142C182.394 121.142 177.379 126.171 177.379 132.374C177.379 138.578 182.394 143.607 188.579 143.607Z" fill="#0000E6"/>
<path d="M187.47 136.66C187.218 136.66 186.972 136.578 186.771 136.427L186.758 136.417L184.126 134.396C184.004 134.303 183.901 134.186 183.824 134.053C183.746 133.919 183.696 133.772 183.676 133.619C183.655 133.466 183.665 133.311 183.705 133.162C183.745 133.012 183.813 132.873 183.907 132.75C184 132.628 184.117 132.525 184.25 132.448C184.383 132.371 184.53 132.321 184.683 132.301C184.835 132.281 184.99 132.291 185.139 132.331C185.287 132.371 185.427 132.44 185.548 132.534L187.253 133.845L191.282 128.576C191.376 128.454 191.492 128.351 191.625 128.274C191.758 128.197 191.905 128.147 192.057 128.127C192.209 128.107 192.364 128.117 192.512 128.157C192.661 128.196 192.8 128.265 192.922 128.359L192.897 128.393L192.922 128.359C193.168 128.549 193.329 128.828 193.37 129.137C193.41 129.445 193.327 129.757 193.139 130.004L188.4 136.202C188.29 136.345 188.149 136.46 187.988 136.54C187.827 136.619 187.649 136.66 187.47 136.66Z" fill="white"/>
<path d="M188.579 176.442C194.765 176.442 199.779 171.413 199.779 165.209C199.779 159.005 194.765 153.976 188.579 153.976C182.394 153.976 177.379 159.005 177.379 165.209C177.379 171.413 182.394 176.442 188.579 176.442Z" fill="#0000E6"/>
<path d="M187.47 169.494C187.218 169.495 186.972 169.413 186.771 169.261L186.758 169.252L184.126 167.231C184.004 167.137 183.901 167.02 183.824 166.887C183.746 166.754 183.696 166.606 183.676 166.453C183.655 166.301 183.665 166.145 183.705 165.996C183.745 165.847 183.813 165.707 183.907 165.585C184 165.462 184.117 165.36 184.25 165.282C184.383 165.205 184.53 165.155 184.683 165.135C184.835 165.115 184.99 165.125 185.139 165.166C185.287 165.206 185.427 165.275 185.548 165.369L187.253 166.68L191.282 161.41C191.376 161.288 191.492 161.186 191.625 161.109C191.758 161.031 191.905 160.981 192.057 160.961C192.209 160.941 192.364 160.951 192.512 160.991C192.661 161.031 192.8 161.1 192.922 161.193L192.897 161.227L192.922 161.194C193.168 161.383 193.329 161.663 193.37 161.971C193.41 162.279 193.327 162.591 193.139 162.838L188.4 169.036C188.29 169.179 188.149 169.295 187.988 169.374C187.827 169.454 187.649 169.495 187.47 169.494Z" fill="white"/>
<path d="M194.61 214.461C200.796 214.461 205.81 209.432 205.81 203.228C205.81 197.024 200.796 191.995 194.61 191.995C188.425 191.995 183.41 197.024 183.41 203.228C183.41 209.432 188.425 214.461 194.61 214.461Z" fill="#0000E6"/>
<path d="M193.5 207.513C193.248 207.513 193.003 207.432 192.801 207.28L192.789 207.271L190.157 205.25C190.034 205.156 189.932 205.039 189.854 204.906C189.777 204.772 189.727 204.625 189.707 204.472C189.686 204.319 189.696 204.164 189.736 204.015C189.775 203.866 189.844 203.726 189.937 203.604C190.031 203.481 190.148 203.378 190.281 203.301C190.414 203.224 190.561 203.174 190.714 203.154C190.866 203.134 191.021 203.144 191.17 203.184C191.318 203.224 191.457 203.294 191.579 203.388L193.284 204.699L197.313 199.429C197.406 199.307 197.523 199.204 197.656 199.127C197.789 199.05 197.936 199 198.088 198.98C198.24 198.96 198.395 198.97 198.543 199.01C198.691 199.05 198.831 199.118 198.952 199.212L198.927 199.246L198.953 199.213C199.199 199.402 199.36 199.682 199.4 199.99C199.441 200.298 199.358 200.61 199.169 200.857L194.431 207.055C194.321 207.198 194.18 207.314 194.019 207.393C193.857 207.472 193.68 207.513 193.5 207.513Z" fill="white"/>
<path d="M249.324 336.286V334.536V332.48V330.73H251.074H265.029H265.056L265.083 330.73H265.083C265.146 330.733 271.084 330.968 276.666 324.175C280.882 319.043 284.931 309.871 285.908 293.488C286.885 277.105 284.781 253.63 276.809 220.047C255.209 129.06 273.221 48.7106 281.97 18.373M249.324 336.286L281.97 18.373M249.324 336.286L251.074 336.286M249.324 336.286L251.074 336.286M281.97 18.373C282.323 17.1396 282.387 15.8406 282.154 14.5784C281.922 13.3157 281.399 12.1248 280.629 11.0998C279.859 10.075 278.862 9.24416 277.718 8.67272C276.573 8.10128 275.312 7.80472 274.035 7.80624M281.97 18.373L274.035 7.80624M251.074 336.286L264.938 336.284C265.003 336.287 265.089 336.289 265.193 336.289C266.84 336.289 274.246 335.803 280.879 327.794L279.531 326.677L251.074 336.286ZM274.035 7.80624L274.032 7.80625L66.3732 7.80625C65.0708 7.80818 63.787 8.11795 62.6258 8.71071C61.4649 9.30339 60.459 10.1624 59.6901 11.2184C56.1836 16.0565 51.2076 25.5752 48.0774 43.0439L47.7685 44.768L46.0446 44.4575L44.0267 44.0941L42.306 43.7842L42.6143 42.0631C45.8889 23.7885 51.2031 13.4666 55.1988 7.95431L55.2006 7.95188C56.4835 6.18842 58.1634 4.75278 60.1041 3.7619M274.035 7.80624L60.1041 3.7619M60.1041 3.7619C62.0448 2.77101 64.1914 2.25293 66.3697 2.25001M60.1041 3.7619L66.3697 2.25001M66.3697 2.25001L66.372 2.25L274.032 2.25001H274.032L66.3697 2.25001Z" fill="#E6E6E6" stroke="#E6E6E6" stroke-width="3.5"/>
<path d="M239.247 361.701L239.247 361.701C243.466 356.568 247.516 347.396 248.494 331.014C249.472 314.631 247.369 291.157 239.396 257.576C217.794 166.593 235.801 86.2392 244.551 55.8979C244.905 54.6645 244.968 53.3655 244.735 52.1034C244.502 50.8414 243.98 49.6512 243.211 48.6269C242.441 47.6026 241.445 46.7721 240.301 46.2007C239.157 45.6293 237.897 45.3324 236.62 45.3333L236.619 45.3333L28.9555 45.3333C27.6531 45.3363 26.3694 45.6463 25.208 46.2386C24.0471 46.8307 23.0407 47.6883 22.2701 48.7427C14.4663 59.5174 -2.6579 96.6918 16.5886 201.798L239.247 361.701ZM239.247 361.701C233.672 368.49 227.741 368.263 227.664 368.26L227.663 368.26L227.639 368.26M239.247 361.701L227.639 368.26M227.639 368.26H227.616M227.639 368.26H227.616M227.616 368.26H23.1041C23.104 368.26 23.1038 368.26 23.1037 368.26C21.7533 368.259 20.4233 367.927 19.2298 367.292C18.0362 366.657 17.0154 365.738 16.257 364.615L16.249 364.603M227.616 368.26L16.249 364.603M16.249 364.603C15.5852 363.637 15.1391 362.537 14.9421 361.38C14.7451 360.223 14.8021 359.036 15.1089 357.904L15.1147 357.882M16.249 364.603L15.1147 357.882M15.1147 357.882L15.1199 357.861M15.1147 357.882L15.1199 357.861M15.1199 357.861C15.1975 357.543 15.298 357.231 15.4208 356.928L15.4256 356.916M15.1199 357.861L15.4256 356.916M15.4256 356.916L15.4303 356.904M15.4256 356.916L15.4303 356.904M15.4303 356.904C18.5123 348.961 20.797 340.729 22.2504 332.332M15.4303 356.904L22.2504 332.332M22.2504 332.332C27.1573 305.494 28.0367 264.273 16.5887 201.798L22.2504 332.332ZM249.888 57.4443L249.889 57.4412C250.479 55.381 250.584 53.2114 250.196 51.1035C249.807 48.9955 248.936 47.0066 247.65 45.2936C246.363 43.5806 244.697 42.1903 242.783 41.2327C240.869 40.2752 238.758 39.7767 236.618 39.7769L28.9535 39.7769L28.9518 39.7769C26.7743 39.779 24.6282 40.2963 22.688 41.2864C20.7477 42.2765 19.0682 43.7115 17.7856 45.4743L17.7839 45.4766C8.98737 57.6084 -8.33221 96.5316 11.1301 202.8C21.4947 259.414 21.3224 297.919 17.9573 323.188L17.9572 323.189C16.0697 337.414 13.1647 347.438 10.557 354.149C10.5568 354.15 10.5566 354.151 10.5564 354.151L10.2813 354.855C10.2799 354.858 10.2786 354.861 10.2772 354.865C9.63668 356.452 9.30245 358.147 9.29217 359.859C9.27042 361.793 9.65738 363.71 10.4277 365.484L12.0328 364.787L10.4277 365.484C11.1969 367.255 12.3309 368.844 13.7558 370.145C14.6889 371.02 15.7442 371.754 16.8887 372.324C17.8381 372.809 18.8423 373.178 19.8798 373.423C20.9362 373.68 22.0199 373.81 23.1072 373.807H227.512C227.518 373.808 227.524 373.808 227.53 373.809C227.592 373.812 227.676 373.816 227.779 373.816C229.421 373.816 236.833 373.329 243.464 365.319L242.116 364.203L243.464 365.319C253.432 353.276 261.018 324.647 244.792 256.292C223.498 166.611 241.261 87.3389 249.888 57.4443Z" fill="#E6E6E6" stroke="#E6E6E6" stroke-width="3.5"/>
<path d="M239.247 361.701L239.247 361.701C243.466 356.568 247.516 347.396 248.494 331.014C249.472 314.631 247.369 291.157 239.396 257.576C217.794 166.593 235.801 86.2392 244.551 55.8979C244.905 54.6645 244.968 53.3655 244.735 52.1034C244.502 50.8414 243.98 49.6512 243.211 48.6269C242.441 47.6026 241.445 46.7721 240.301 46.2007C239.157 45.6293 237.897 45.3324 236.62 45.3333L236.619 45.3333L28.9555 45.3333C27.6531 45.3363 26.3694 45.6463 25.208 46.2386C24.0471 46.8307 23.0407 47.6883 22.2701 48.7427C14.4663 59.5174 -2.6579 96.6918 16.5886 201.798L239.247 361.701ZM239.247 361.701C233.672 368.49 227.741 368.263 227.664 368.26L227.663 368.26L227.639 368.26M239.247 361.701L227.639 368.26M227.639 368.26H227.616M227.639 368.26H227.616M227.616 368.26H23.1041C23.104 368.26 23.1038 368.26 23.1037 368.26C21.7533 368.259 20.4233 367.927 19.2298 367.292C18.0362 366.657 17.0154 365.738 16.257 364.615L16.249 364.603M227.616 368.26L16.249 364.603M16.249 364.603C15.5852 363.637 15.1391 362.537 14.9421 361.38C14.7451 360.223 14.8021 359.036 15.1089 357.904L15.1147 357.882M16.249 364.603L15.1147 357.882M15.1147 357.882L15.1199 357.861M15.1147 357.882L15.1199 357.861M15.1199 357.861C15.1975 357.543 15.298 357.231 15.4208 356.928L15.4256 356.916M15.1199 357.861L15.4256 356.916M15.4256 356.916L15.4303 356.904M15.4256 356.916L15.4303 356.904M15.4303 356.904C18.5123 348.961 20.797 340.729 22.2504 332.332M15.4303 356.904L22.2504 332.332M22.2504 332.332C27.1573 305.494 28.0367 264.273 16.5887 201.798L22.2504 332.332ZM249.888 57.4443L249.889 57.4412C250.479 55.381 250.584 53.2114 250.196 51.1035C249.807 48.9955 248.936 47.0066 247.65 45.2936C246.363 43.5806 244.697 42.1903 242.783 41.2327C240.869 40.2752 238.758 39.7767 236.618 39.7769L28.9535 39.7769L28.9518 39.7769C26.7743 39.779 24.6282 40.2963 22.688 41.2864C20.7477 42.2765 19.0682 43.7115 17.7856 45.4743L17.7839 45.4766C8.98737 57.6084 -8.33221 96.5316 11.1301 202.8C21.4947 259.414 21.3224 297.919 17.9573 323.188L17.9572 323.189C16.0697 337.414 13.1647 347.438 10.557 354.149C10.5568 354.15 10.5566 354.151 10.5564 354.151L10.2813 354.855C10.2799 354.858 10.2786 354.861 10.2772 354.865C9.63668 356.452 9.30245 358.147 9.29217 359.859C9.27042 361.793 9.65738 363.71 10.4277 365.484L12.0328 364.787L10.4277 365.484C11.1969 367.255 12.3309 368.844 13.7558 370.145C14.6889 371.02 15.7442 371.754 16.8887 372.324C17.8381 372.809 18.8423 373.178 19.8798 373.423C20.9362 373.68 22.0199 373.81 23.1072 373.807H227.512C227.518 373.808 227.524 373.808 227.53 373.809C227.592 373.812 227.676 373.816 227.779 373.816C229.421 373.816 236.833 373.329 243.464 365.319L242.116 364.203L243.464 365.319C253.432 353.276 261.018 324.647 244.792 256.292C223.498 166.611 241.261 87.3389 249.888 57.4443Z" fill="#E6E6E6" stroke="#E6E6E6" stroke-width="3.5"/>
<path d="M144.434 139.633H37.4425C35.2675 139.633 33.1816 138.767 31.6436 137.224C30.1057 135.682 29.2417 133.59 29.2417 131.408C29.2417 129.227 30.1057 127.135 31.6436 125.592C33.1816 124.05 35.2675 123.183 37.4425 123.183H144.434C146.609 123.183 148.695 124.05 150.232 125.592C151.77 127.135 152.634 129.227 152.634 131.408C152.634 133.59 151.77 135.682 150.232 137.224C148.695 138.767 146.609 139.633 144.434 139.633Z" fill="#CCCCCC"/>
<path d="M144.434 175.06H37.4425C35.2675 175.06 33.1816 174.193 31.6436 172.651C30.1057 171.108 29.2417 169.016 29.2417 166.835C29.2417 164.654 30.1057 162.562 31.6436 161.019C33.1816 159.477 35.2675 158.61 37.4425 158.61H144.434C146.609 158.61 148.695 159.477 150.232 161.019C151.77 162.562 152.634 164.654 152.634 166.835C152.634 169.016 151.77 171.108 150.232 172.651C148.695 174.193 146.609 175.06 144.434 175.06Z" fill="#CCCCCC"/>
<path d="M153.049 211.35H46.0577C43.8827 211.35 41.7968 210.484 40.2589 208.941C38.7209 207.399 37.8569 205.307 37.8569 203.125C37.8569 200.944 38.7209 198.852 40.2589 197.31C41.7968 195.767 43.8827 194.901 46.0577 194.901H153.049C155.224 194.901 157.31 195.767 158.848 197.31C160.386 198.852 161.25 200.944 161.25 203.125C161.25 205.307 160.386 207.399 158.848 208.941C157.31 210.484 155.224 211.35 153.049 211.35Z" fill="#CCCCCC"/>
<path d="M159.08 249.369H52.0885C49.9135 249.369 47.8276 248.503 46.2896 246.96C44.7517 245.418 43.8877 243.326 43.8877 241.145C43.8877 238.963 44.7517 236.871 46.2896 235.329C47.8276 233.786 49.9135 232.92 52.0885 232.92H159.08C161.255 232.92 163.34 233.786 164.878 235.329C166.416 236.871 167.28 238.963 167.28 241.145C167.28 243.326 166.416 245.418 164.878 246.96C163.34 248.503 161.255 249.369 159.08 249.369Z" fill="#CCCCCC"/>
<path d="M159.126 75.7703H82.2429C81.1653 75.7714 80.098 75.5595 79.102 75.1466C78.1061 74.7338 77.201 74.1281 76.4386 73.3642C75.6762 72.6004 75.0714 71.6933 74.6588 70.6949C74.2461 69.6965 74.0337 68.6262 74.0337 67.5454C74.0337 66.4646 74.2461 65.3944 74.6588 64.396C75.0714 63.3975 75.6762 62.4904 76.4386 61.7266C77.201 60.9627 78.1061 60.3571 79.102 59.9442C80.098 59.5314 81.1653 59.3195 82.2429 59.3206H159.126C161.301 59.3206 163.386 60.1871 164.924 61.7296C166.462 63.272 167.326 65.3641 167.326 67.5454C167.326 69.7268 166.462 71.8188 164.924 73.3613C163.386 74.9037 161.301 75.7703 159.126 75.7703Z" fill="#0000E6"/>
<path d="M201.503 252.377C207.688 252.377 212.703 247.348 212.703 241.144C212.703 234.941 207.688 229.912 201.503 229.912C195.317 229.912 190.303 234.941 190.303 241.144C190.303 247.348 195.317 252.377 201.503 252.377Z" fill="#CCCCCC"/>
<path d="M164.249 286.524H57.2574C55.0824 286.524 52.9965 285.658 51.4586 284.115C49.9206 282.573 49.0566 280.481 49.0566 278.299C49.0566 276.118 49.9206 274.026 51.4586 272.483C52.9965 270.941 55.0824 270.074 57.2574 270.074H164.249C166.424 270.074 168.509 270.941 170.047 272.483C171.585 274.026 172.449 276.118 172.449 278.299C172.449 280.481 171.585 282.573 170.047 284.115C168.509 285.658 166.424 286.524 164.249 286.524Z" fill="#CCCCCC"/>
<path d="M206.672 289.532C212.857 289.532 217.872 284.503 217.872 278.299C217.872 272.096 212.857 267.066 206.672 267.066C200.486 267.066 195.472 272.096 195.472 278.299C195.472 284.503 200.486 289.532 206.672 289.532Z" fill="#CCCCCC"/>
<path d="M323.45 473.839L323.451 473.838C327.717 471.432 330.855 467.428 332.18 462.706C333.504 457.984 332.907 452.928 330.519 448.647L330.518 448.645L268.54 337.828L268.539 337.826C266.141 333.55 262.149 330.401 257.437 329.072C252.726 327.743 247.681 328.342 243.41 330.739L243.409 330.739L107.684 407.093L107.683 407.094C103.418 409.5 100.279 413.503 98.9547 418.226C97.6303 422.948 98.2275 428.004 100.616 432.285L100.617 432.287L162.594 543.104L162.595 543.106C164.993 547.382 168.985 550.531 173.697 551.86C178.408 553.189 183.453 552.59 187.724 550.193L187.726 550.192L323.45 473.839Z" fill="white" stroke="#999999" stroke-width="3"/>
<path d="M322.714 472.532L186.99 548.885C183.067 551.087 178.432 551.637 174.104 550.416C169.776 549.195 166.108 546.302 163.904 542.372L101.926 431.555C99.7305 427.619 99.1815 422.971 100.399 418.631C101.616 414.29 104.501 410.611 108.42 408.4L244.144 332.047C248.068 329.845 252.702 329.295 257.03 330.516C261.358 331.737 265.027 334.63 267.231 338.56L329.209 449.377C331.404 453.313 331.953 457.96 330.735 462.301C329.518 466.642 326.633 470.321 322.714 472.532ZM109.396 410.145C105.938 412.096 103.393 415.342 102.319 419.172C101.244 423.002 101.729 427.103 103.666 430.576L165.644 541.393C167.588 544.861 170.825 547.414 174.644 548.491C178.463 549.568 182.552 549.082 186.014 547.14L321.738 470.786C325.196 468.836 327.741 465.59 328.816 461.76C329.89 457.93 329.405 453.828 327.469 450.356L265.491 339.539C263.546 336.071 260.309 333.518 256.49 332.441C252.671 331.364 248.582 331.849 245.12 333.792L109.396 410.145Z" fill="#999999"/>
<path d="M247.329 374.004L178.831 412.538C178.236 412.889 177.53 413 176.857 412.849C176.183 412.698 175.591 412.297 175.202 411.725C175.011 411.423 174.883 411.085 174.827 410.732C174.771 410.379 174.787 410.018 174.874 409.672C174.961 409.325 175.118 409 175.335 408.716C175.551 408.432 175.823 408.195 176.134 408.021L245.861 368.795C249.291 369.527 249.326 372.881 247.329 374.004L247.329 374.004Z" fill="#CCCCCC"/>
<path d="M254.069 386.054L185.57 424.589C184.975 424.94 184.27 425.051 183.596 424.9C182.922 424.749 182.331 424.347 181.941 423.775C181.75 423.473 181.623 423.135 181.566 422.782C181.51 422.429 181.526 422.069 181.613 421.722C181.7 421.375 181.857 421.05 182.074 420.766C182.291 420.482 182.563 420.246 182.874 420.071L252.601 380.845C256.03 381.577 256.065 384.931 254.068 386.054L254.069 386.054Z" fill="#CCCCCC"/>
<path d="M174.6 439.78L153.695 451.54C153.012 451.924 152.206 452.02 151.452 451.807C150.699 451.594 150.06 451.091 149.677 450.407L135.839 425.665C135.457 424.98 135.361 424.171 135.573 423.415C135.785 422.66 136.287 422.019 136.97 421.634L157.875 409.874C158.558 409.491 159.364 409.395 160.117 409.608C160.871 409.82 161.509 410.324 161.893 411.008L175.731 435.75C176.113 436.435 176.208 437.244 175.997 437.999C175.785 438.755 175.283 439.395 174.6 439.78L174.6 439.78Z" fill="#CCCCCC"/>
<path d="M267.669 410.839L163.128 469.65C162.533 470.001 161.827 470.112 161.153 469.961C160.48 469.81 159.888 469.408 159.499 468.837C159.308 468.535 159.18 468.197 159.124 467.844C159.067 467.491 159.083 467.13 159.171 466.783C159.258 466.437 159.415 466.112 159.631 465.828C159.848 465.544 160.12 465.307 160.431 465.132L266.202 405.63C269.631 406.362 269.666 409.716 267.669 410.839Z" fill="#CCCCCC"/>
<path d="M274.41 422.893L169.869 481.704C169.274 482.055 168.568 482.166 167.895 482.015C167.221 481.864 166.629 481.462 166.24 480.89C166.049 480.588 165.921 480.251 165.865 479.898C165.809 479.545 165.825 479.184 165.912 478.837C165.999 478.49 166.156 478.165 166.373 477.881C166.589 477.597 166.861 477.361 167.172 477.186L272.943 417.683C276.372 418.415 276.407 421.769 274.41 422.893V422.893Z" fill="#CCCCCC"/>
<path d="M281.147 434.939L176.606 493.75C176.011 494.101 175.305 494.212 174.631 494.061C173.958 493.91 173.366 493.508 172.977 492.936C172.786 492.634 172.658 492.297 172.602 491.943C172.545 491.59 172.561 491.23 172.649 490.883C172.736 490.536 172.893 490.211 173.109 489.927C173.326 489.643 173.598 489.407 173.909 489.232L279.68 429.729C283.109 430.461 283.144 433.815 281.147 434.939Z" fill="#CCCCCC"/>
<path d="M287.888 446.992L183.347 505.803C182.752 506.154 182.046 506.265 181.373 506.114C180.699 505.963 180.107 505.561 179.718 504.989C179.527 504.687 179.399 504.349 179.343 503.996C179.287 503.643 179.303 503.283 179.39 502.936C179.477 502.589 179.634 502.264 179.851 501.98C180.067 501.696 180.34 501.46 180.65 501.285L286.421 441.782C289.85 442.514 289.886 445.868 287.888 446.992H287.888Z" fill="#CCCCCC"/>
<path d="M294.625 459.038L190.085 517.849C189.49 518.2 188.784 518.311 188.11 518.16C187.436 518.009 186.845 517.607 186.455 517.036C186.264 516.734 186.137 516.396 186.08 516.043C186.024 515.69 186.04 515.329 186.127 514.983C186.214 514.636 186.371 514.311 186.588 514.027C186.805 513.743 187.077 513.506 187.388 513.331L293.158 453.829C296.587 454.561 296.623 457.915 294.625 459.038V459.038Z" fill="#CCCCCC"/>
<path d="M276.387 504.183C276.956 502.923 277.243 501.554 277.228 500.172C277.212 498.789 276.895 497.426 276.297 496.18C275.7 494.934 274.838 493.834 273.771 492.958C272.704 492.083 271.458 491.452 270.122 491.111L267.279 457.621L253.606 468.439L258.402 498.583C257.98 500.873 258.41 503.237 259.61 505.23C260.811 507.223 262.698 508.704 264.915 509.395C267.132 510.085 269.524 509.936 271.638 508.975C273.753 508.014 275.442 506.309 276.387 504.183Z" fill="#FFB8B8"/>
<path d="M267.538 487.604L256.183 488.962C255.606 489.031 255.021 488.98 254.465 488.812C253.908 488.643 253.393 488.362 252.95 487.984C252.507 487.607 252.147 487.142 251.892 486.619C251.637 486.095 251.492 485.524 251.467 484.942L249.811 446.522L228.286 387.548C227.424 385.718 227.03 383.701 227.142 381.68C227.254 379.659 227.867 377.698 228.926 375.975C229.454 375.142 230.058 374.361 230.73 373.641C232.054 372.21 233.704 371.122 235.539 370.469C237.373 369.815 239.338 369.616 241.266 369.889C243.252 370.154 245.146 370.89 246.791 372.037C248.437 373.183 249.786 374.707 250.726 376.481L264.763 405.982C270.634 418.321 273.407 431.914 272.838 445.574L271.255 483.58C271.213 484.574 270.823 485.522 270.154 486.257C269.484 486.992 268.578 487.466 267.594 487.597L267.538 487.604Z" fill="#0000E6"/>
<path d="M307.864 653.652L297.336 658.286L274.502 619.765L290.04 612.925L307.864 653.652Z" fill="#FFB8B8"/>
<path d="M315.029 662.705L281.083 677.649L280.894 677.219C280.133 675.478 279.72 673.605 279.68 671.705C279.641 669.805 279.975 667.915 280.663 666.145C281.351 664.374 282.381 662.756 283.692 661.385C285.004 660.013 286.572 658.914 288.307 658.15L288.308 658.15L309.041 649.022L315.029 662.705Z" fill="#333333"/>
<path d="M166.523 666.471H155.026L149.556 621.993L166.525 621.994L166.523 666.471Z" fill="#FFB8B8"/>
<path d="M169.455 677.649L132.382 677.648V677.177C132.382 675.277 132.755 673.395 133.48 671.639C134.205 669.883 135.268 668.288 136.608 666.944C137.948 665.6 139.539 664.534 141.29 663.807C143.04 663.08 144.917 662.706 146.812 662.706H146.813L169.455 662.706L169.455 677.649Z" fill="#333333"/>
<path d="M278.463 651.266L214.414 507.915C214.299 507.646 214.103 507.42 213.853 507.268C213.604 507.116 213.314 507.046 213.023 507.066C212.732 507.087 212.454 507.198 212.229 507.384C212.003 507.57 211.841 507.821 211.765 508.103L172.74 646.563C172.482 647.532 171.888 648.377 171.065 648.946C170.241 649.515 169.242 649.77 168.247 649.665L146.934 647.527C145.836 647.412 144.826 646.871 144.119 646.021C143.411 645.171 143.062 644.078 143.145 642.973C149.924 558.41 160.611 478.598 192.625 426.351L192.796 426.073L241.22 435.596L305.87 642.068C306.189 643.131 306.081 644.278 305.568 645.262C305.055 646.246 304.178 646.99 303.125 647.335L283.63 653.619C282.631 653.945 281.547 653.884 280.591 653.448C279.635 653.013 278.876 652.234 278.463 651.266Z" fill="#333333"/>
<path d="M216.201 352.92C228.922 352.92 239.235 342.577 239.235 329.818C239.235 317.059 228.922 306.717 216.201 306.717C203.48 306.717 193.167 317.059 193.167 329.818C193.167 342.577 203.48 352.92 216.201 352.92Z" fill="#FFB8B8"/>
<path d="M189.649 430.35L189.356 430.29L189.287 429.998C186.183 416.856 186.109 402.514 189.067 387.372C190.567 379.633 194.742 372.673 200.856 367.718C206.971 362.763 214.632 360.13 222.492 360.285C231.02 360.458 239.16 363.894 245.245 369.888C251.331 375.882 254.903 383.982 255.23 392.531C256.217 418.575 245.605 441.154 245.498 441.379L245.34 441.71L189.649 430.35Z" fill="#0000E6"/>
<path d="M127.901 474.3C129.265 474.098 130.568 473.598 131.719 472.836C132.869 472.075 133.839 471.069 134.56 469.89C135.282 468.712 135.736 467.389 135.892 466.015C136.049 464.641 135.903 463.25 135.465 461.939L161.995 441.403L145.523 435.735L122.854 456.105C120.707 456.989 118.957 458.632 117.937 460.723C116.917 462.814 116.697 465.208 117.32 467.451C117.942 469.694 119.363 471.63 121.313 472.892C123.263 474.154 125.607 474.655 127.901 474.3V474.3Z" fill="#FFB8B8"/>
<path d="M142.392 458.813C141.528 459.325 140.511 459.51 139.522 459.336C138.534 459.161 137.641 458.637 137.004 457.86L129.716 449.022C129.345 448.573 129.072 448.052 128.911 447.492C128.751 446.932 128.708 446.344 128.784 445.767C128.861 445.189 129.056 444.634 129.356 444.135C129.657 443.636 130.057 443.205 130.531 442.869L161.837 420.664L199.61 370.576C200.677 368.857 202.154 367.433 203.909 366.433C205.663 365.433 207.639 364.888 209.657 364.847C210.64 364.841 211.622 364.927 212.589 365.104C214.506 365.446 216.312 366.247 217.854 367.44C219.395 368.633 220.626 370.182 221.441 371.955C222.294 373.773 222.703 375.769 222.633 377.777C222.563 379.785 222.017 381.747 221.039 383.501L193.07 428.929L193.008 429.028L142.392 458.813Z" fill="#0000E6"/>
<path d="M220.32 328.385C218.622 325.584 214.876 324.792 211.624 325.112C208.371 325.432 205.208 326.578 201.94 326.553C192.865 326.482 185.86 315.39 189.676 307.132C192.805 300.359 200.619 297.385 207.688 295.051C222.51 290.158 239.535 285.456 252.985 293.391C257.271 295.994 260.786 299.698 263.168 304.119C265.549 308.541 266.711 313.52 266.532 318.543C266.229 324.787 263.845 331.202 265.861 337.117C268.188 343.942 275.565 347.604 282.536 349.375C294.757 352.48 307.642 351.98 319.938 354.765C332.235 357.55 344.836 364.945 348.151 377.143C350.328 385.156 348.056 393.781 344.294 401.179C340.455 408.727 335.121 415.41 328.617 420.818C322.114 426.226 314.578 430.245 306.471 432.63C298.364 435.015 289.857 435.715 281.472 434.687C273.086 433.659 264.997 430.925 257.702 426.653C242.836 417.947 232.103 403.233 225.704 387.204C222.076 377.855 219.522 368.121 218.091 358.191C216.658 348.896 217.874 339.502 220.47 330.464C220.592 330.127 220.643 329.767 220.617 329.408C220.591 329.05 220.49 328.701 220.32 328.385Z" fill="#333333"/>
<path d="M303.418 678.999H113.883C113.619 678.999 113.365 678.894 113.178 678.706C112.991 678.519 112.886 678.264 112.886 677.999C112.886 677.734 112.991 677.479 113.178 677.292C113.365 677.104 113.619 676.999 113.883 676.999H303.418C303.682 676.999 303.936 677.104 304.123 677.292C304.31 677.479 304.415 677.734 304.415 677.999C304.415 678.264 304.31 678.519 304.123 678.706C303.936 678.894 303.682 678.999 303.418 678.999Z" fill="#CCCCCC"/>
</svg>
