<svg width="120" height="120" viewBox="0 0 120 120" fill="none" xmlns="http://www.w3.org/2000/svg">
<g clip-path="url(#clip0)">
<path d="M38.9098 85.272L37.1242 92.8068C37.0236 93.231 36.7587 93.5979 36.3876 93.8268C36.0165 94.0556 35.5697 94.1277 35.1454 94.0272L33.379 93.6084C33.3304 93.597 33.2799 93.5962 33.2309 93.6058C33.1818 93.6155 33.1354 93.6354 33.0947 93.6643C33.054 93.6933 33.0199 93.7305 32.9946 93.7736C32.9694 93.8167 32.9535 93.8647 32.9482 93.9144L32.6554 96.72C32.6479 96.7924 32.618 96.8608 32.57 96.9156C32.5219 96.9703 32.458 97.0088 32.3871 97.0257C32.3162 97.0425 32.2418 97.037 32.1742 97.0097C32.1066 96.9825 32.0492 96.9349 32.0098 96.8736L29.3818 92.76C29.333 92.6827 29.2559 92.6276 29.167 92.6064L21.3106 90.744C20.8864 90.6434 20.5195 90.3784 20.2906 90.0073C20.0618 89.6362 19.9897 89.1894 20.0902 88.7652L20.5066 87.006C20.5283 86.9152 20.585 86.8367 20.6644 86.7877C20.7438 86.7387 20.8394 86.7231 20.9302 86.7444L28.2178 88.4724C28.642 88.5726 29.0887 88.5004 29.4597 88.2715C29.8307 88.0427 30.0957 87.676 30.1966 87.252L31.4038 82.164C31.4144 82.1189 31.4338 82.0764 31.4608 82.0389C31.4878 82.0014 31.522 81.9696 31.5613 81.9453C31.6007 81.921 31.6445 81.9047 31.6901 81.8973C31.7358 81.8899 31.7824 81.8917 31.8274 81.9024L37.6894 83.292C38.1137 83.3928 38.4807 83.658 38.7095 84.0293C38.9383 84.4006 39.0104 84.8476 38.9098 85.272V85.272Z" fill="#E5E5E5"/>
<path d="M30.7789 77.1492L15.7309 73.5816C15.4674 73.5192 15.1899 73.5641 14.9595 73.7063C14.7291 73.8486 14.5645 74.0765 14.5021 74.34L12.4273 83.088C12.365 83.3515 12.4099 83.629 12.5521 83.8594C12.6943 84.0898 12.9222 84.2543 13.1857 84.3168L15.9457 84.972L14.4481 88.9319L19.6309 85.8468L28.2325 87.8868C28.4957 87.9491 28.7729 87.9044 29.0031 87.7624C29.2334 87.6204 29.3977 87.3927 29.4601 87.1296L31.5349 78.3804C31.5662 78.2499 31.5714 78.1145 31.5504 77.982C31.5293 77.8495 31.4823 77.7224 31.4121 77.6081C31.3419 77.4938 31.2498 77.3944 31.1412 77.3156C31.0325 77.2369 30.9095 77.1803 30.7789 77.1492V77.1492ZM18.2101 80.772C16.7701 81.1824 15.7861 79.572 16.8013 78.4788C16.9285 78.3411 17.0913 78.2415 17.2717 78.1908C18.7045 77.7888 19.6861 79.3812 18.6817 80.4804C18.5546 80.6194 18.3914 80.7204 18.2101 80.772V80.772ZM22.5085 81.7908C21.0685 82.2012 20.0845 80.5908 21.0997 79.4988C21.2265 79.3604 21.3895 79.2602 21.5701 79.2096C23.0029 78.8076 23.9845 80.4 22.9801 81.5004C22.853 81.6391 22.6897 81.7397 22.5085 81.7908V81.7908ZM26.8069 82.8108C25.3669 83.22 24.3829 81.6108 25.3981 80.5176C25.5255 80.3802 25.6883 80.2805 25.8685 80.2296C27.3085 79.8264 28.2829 81.42 27.2785 82.5192C27.1511 82.6578 26.988 82.7587 26.8069 82.8108V82.8108Z" fill="#E5E5E5"/>
<path d="M70.7181 83.1538L52.8804 86.8348L53.0118 87.4718L70.8496 83.7908L70.7181 83.1538Z" fill="#E5E5E5"/>
<path d="M73.1107 94.7407L55.2729 98.4217L55.4553 99.3055L73.2931 95.6244L73.1107 94.7407Z" fill="#E5E5E5"/>
<path d="M53.0918 87.87L55.1882 98.0316L73.0262 94.3512L70.9286 84.1896L53.0918 87.87ZM63.8918 95.1288C63.2654 95.2579 62.617 95.2334 62.0022 95.0573C61.3873 94.8813 60.8242 94.5589 60.3611 94.1178C59.898 93.6767 59.5486 93.13 59.3428 92.5244C59.137 91.9188 59.081 91.2724 59.1795 90.6405C59.278 90.0085 59.5281 89.4098 59.9084 88.8956C60.2887 88.3814 60.7879 87.9669 61.3633 87.6877C61.9387 87.4085 62.5732 87.2727 63.2125 87.2922C63.8517 87.3116 64.4768 87.4855 65.0342 87.7992L63.0914 91.2492L67.0514 91.32C67.0354 92.22 66.7132 93.0876 66.138 93.78C65.5627 94.4723 64.7688 94.9481 63.887 95.1288H63.8918ZM67.9718 90.8472L64.0118 90.7776L65.9546 87.3264C66.4486 87.6035 66.8772 87.9837 67.2114 88.4411C67.5456 88.8984 67.7775 89.4223 67.8914 89.9772C67.9492 90.2634 67.9753 90.5552 67.9694 90.8472H67.9718Z" fill="#E5E5E5"/>
<path d="M65.0453 97.6339L63.8242 97.8859L64.83 102.76L66.051 102.508L65.0453 97.6339Z" fill="#E5E5E5"/>
<path d="M70.9104 101.508L69.69 101.76L66.792 97.2768L68.0124 97.0248L70.9104 101.508Z" fill="#E5E5E5"/>
<path d="M62.0701 98.2512L61.1833 103.516L59.9629 103.768L60.8497 98.5032L62.0701 98.2512Z" fill="#E5E5E5"/>
<path d="M57.7499 38.3364L56.9819 37.782L57.8447 35.022C57.8652 34.9571 57.9033 34.8991 57.9549 34.8546C58.0064 34.8101 58.0693 34.7808 58.1365 34.7699C58.2038 34.7591 58.2727 34.7672 58.3356 34.7933C58.3985 34.8193 58.4529 34.8624 58.4927 34.9176L60.2519 37.368L59.7407 38.0748L58.7159 37.3344C58.6731 37.304 58.6201 37.2917 58.5683 37.3C58.5164 37.3083 58.4699 37.3366 58.4387 37.3788L57.7499 38.3364Z" fill="#E5E5E5"/>
<path d="M65.5539 45.6684L54.5139 47.4468C54.4522 47.4569 54.3889 47.451 54.3301 47.4297C54.2713 47.4084 54.219 47.3724 54.1781 47.3251C54.1372 47.2778 54.109 47.2208 54.0964 47.1596C54.0838 47.0983 54.0871 47.0349 54.1059 46.9752L56.9031 38.3652L57.7227 38.9568C57.7437 38.9723 57.7677 38.9835 57.7931 38.9897C57.8184 38.9958 57.8448 38.9969 57.8706 38.9928C57.8964 38.9886 57.9211 38.9794 57.9433 38.9656C57.9655 38.9518 57.9848 38.9337 57.9999 38.9124L58.6899 37.9596L59.7147 38.7012C59.7578 38.7312 59.8108 38.7432 59.8626 38.7347C59.9143 38.7262 59.9607 38.6978 59.9919 38.6556L60.5415 37.8948L65.7903 45.0948C65.826 45.1454 65.8484 45.2042 65.8553 45.2657C65.8623 45.3272 65.8535 45.3895 65.8299 45.4467C65.8063 45.5039 65.7687 45.5543 65.7204 45.593C65.6722 45.6318 65.6149 45.6577 65.5539 45.6684V45.6684Z" fill="#E5E5E5"/>
<path d="M65.8008 32.0989L64.7856 31.3645L65.838 27.9985C65.8596 27.9305 65.8997 27.8698 65.9537 27.8233C66.0077 27.7767 66.0736 27.7461 66.144 27.7347C66.2144 27.7234 66.2866 27.7319 66.3525 27.7592C66.4184 27.7864 66.4754 27.8315 66.5172 27.8893L68.5753 30.7561L67.7917 31.8361L66.7669 31.0957C66.7458 31.0802 66.7219 31.069 66.6965 31.0628C66.6711 31.0567 66.6447 31.0556 66.6189 31.0597C66.5931 31.0639 66.5684 31.0731 66.5462 31.0869C66.524 31.1007 66.5048 31.1188 66.4897 31.1401L65.8008 32.0989Z" fill="#E5E5E5"/>
<path d="M77.2427 43.7845L66.8591 45.4585L62.3447 39.1693L64.7159 31.9801L65.7839 32.7529C65.8267 32.7832 65.8798 32.7956 65.9316 32.7873C65.9834 32.779 66.03 32.7507 66.0611 32.7085L66.7499 31.7545L67.7759 32.4949C67.8186 32.5255 67.8717 32.538 67.9235 32.5297C67.9492 32.526 67.9739 32.517 67.9959 32.5034C68.018 32.4898 68.0371 32.4718 68.0519 32.4505L68.8739 31.3129L77.4947 43.1809C77.533 43.2341 77.5571 43.2963 77.5645 43.3614C77.572 43.4266 77.5627 43.4926 77.5374 43.5531C77.5121 43.6136 77.4718 43.6666 77.4202 43.7071C77.3686 43.7476 77.3075 43.7743 77.2427 43.7845V43.7845Z" fill="#E5E5E5"/>
<path d="M65.4716 22.75L65.2109 22.792L66.0428 27.9562L66.3034 27.9143L65.4716 22.75Z" fill="#E5E5E5"/>
<path d="M71.6219 25.674L65.9579 26.5872L65.3423 22.7652L71.0063 21.852L70.0079 23.9736L71.6219 25.674Z" fill="#E5E5E5"/>
<path d="M82.4651 -9.4704L78.6455 6.6384L82.8227 7.6296L86.6399 -8.4804L82.4651 -9.4704ZM80.9375 6.2796C80.7035 6.22422 80.4912 6.10069 80.3275 5.92464C80.1637 5.74858 80.0558 5.52792 80.0175 5.29055C79.9791 5.05319 80.012 4.80978 80.112 4.59111C80.212 4.37245 80.3746 4.18836 80.5793 4.06212C80.7839 3.93588 81.0214 3.87316 81.2617 3.8819C81.502 3.89063 81.7343 3.97044 81.9292 4.11121C82.1241 4.25198 82.2729 4.4474 82.3568 4.67274C82.4407 4.89809 82.4558 5.14325 82.4003 5.3772C82.3256 5.69064 82.1297 5.96168 81.8555 6.13085C81.5813 6.30002 81.2511 6.35352 80.9375 6.2796V6.2796ZM83.4251 1.0548L81.0587 0.493204L83.1599 -8.3508L85.5263 -7.7904L83.4251 1.0548Z" fill="#E5E5E5"/>
<path d="M86.269 -7.85998L87.2098 8.66882L91.4962 8.42882L90.5542 -8.10358L86.269 -7.85998ZM89.3038 7.67042C89.0638 7.68428 88.825 7.62662 88.6177 7.50475C88.4104 7.38288 88.244 7.20228 88.1393 6.98578C88.0347 6.76927 87.9966 6.52661 88.0299 6.28847C88.0632 6.05033 88.1664 5.82741 88.3264 5.64793C88.4864 5.46844 88.6961 5.34044 88.9289 5.28012C89.1616 5.21979 89.4071 5.22986 89.6341 5.30904C89.8612 5.38822 90.0596 5.53296 90.2044 5.72495C90.3492 5.91694 90.4337 6.14756 90.4474 6.38762C90.4655 6.70928 90.3552 7.02496 90.1408 7.26543C89.9264 7.5059 89.6255 7.65155 89.3038 7.67042ZM90.1954 1.95242L87.7666 2.09042L87.2506 -6.98398L89.6782 -7.12198L90.1954 1.95242Z" fill="#E5E5E5"/>
<path d="M90.6646 -5.24518L95.4142 10.614L99.5266 9.38282L94.7758 -6.47998L90.6646 -5.24518ZM97.219 9.15482C96.9884 9.22301 96.7428 9.22131 96.5133 9.14993C96.2837 9.07856 96.0805 8.94071 95.9292 8.75383C95.778 8.56695 95.6856 8.33942 95.6636 8.10001C95.6417 7.86061 95.6913 7.62008 95.806 7.40883C95.9208 7.19759 96.0956 7.02512 96.3084 6.91322C96.5212 6.80133 96.7624 6.75505 97.0015 6.78022C97.2405 6.8054 97.4668 6.9009 97.6516 7.05465C97.8364 7.20841 97.9715 7.41351 98.0398 7.64402C98.0853 7.79727 98.1002 7.95799 98.0835 8.117C98.0669 8.27601 98.0191 8.43018 97.9429 8.57071C97.8667 8.71124 97.7635 8.83537 97.6393 8.936C97.5151 9.03664 97.3722 9.11181 97.219 9.15722V9.15482ZM96.7606 3.38522L94.4302 4.08362L91.8226 -4.62118L94.1518 -5.31958L96.7606 3.38522Z" fill="#E5E5E5"/>
<path d="M98.4549 52.4688L90.0633 67.4304L85.6185 64.302L94.5525 55.5792L84.3129 63.3816L80.1465 58.9824L98.4549 52.4688Z" fill="#E5E5E5"/>
<path d="M85.6187 64.302L85.6631 67.4316L87.1403 65.3724L85.6187 64.302Z" fill="#E5E5E5"/>
<path d="M40.5519 21.3096L35.8803 28.2588L32.8083 18.4116C32.7925 18.3621 32.7824 18.3109 32.7783 18.2592L40.5519 21.3096Z" fill="#E5E5E5"/>
<path d="M49.4148 13.6692L52.188 22.554L45.2676 19.8384L49.4148 13.6692Z" fill="#E5E5E5"/>
<path d="M52.3779 23.16L52.4751 23.472C52.5309 23.6779 52.5028 23.8975 52.3968 24.0827C52.2908 24.2679 52.1157 24.4034 51.9099 24.4596L37.0227 29.1096C36.8589 29.1646 36.6821 29.1671 36.5169 29.1167C36.3517 29.0664 36.2063 28.9657 36.1011 28.8288L41.0283 21.4968L41.0967 21.5244L43.4967 22.4676L44.9787 20.262L52.3779 23.16Z" fill="#E5E5E5"/>
<path d="M49.2002 13.0884L44.5082 20.076L43.3082 21.8568L41.3102 21.0732L32.9102 17.7732C33.0216 17.6066 33.1868 17.4834 33.3782 17.424L48.2654 12.7788C48.4338 12.7232 48.6156 12.7232 48.784 12.779C48.9523 12.8347 49.0983 12.9432 49.2002 13.0884V13.0884Z" fill="#E5E5E5"/>
<path d="M131.098 61.8336L129.562 65.73C127.183 65.691 124.819 65.3277 122.538 64.65C122.338 64.5924 122.138 64.53 121.938 64.47L122.44 63.192C122.45 63.1668 122.455 63.1399 122.454 63.1129C122.453 63.0859 122.447 63.0593 122.436 63.0348C122.425 63.0102 122.409 62.988 122.389 62.9697C122.369 62.9514 122.346 62.9372 122.32 62.928L118.543 61.4388C118.518 61.4292 118.491 61.4247 118.464 61.4256C118.437 61.4264 118.411 61.4326 118.386 61.4438C118.362 61.455 118.34 61.4709 118.322 61.4906C118.303 61.5104 118.289 61.5335 118.28 61.5588L117.776 62.8368C117.588 62.7468 117.4 62.6532 117.214 62.5608C115.081 61.5011 113.103 60.1551 111.334 58.56L112.87 54.6636C112.952 54.4557 113.074 54.2659 113.229 54.1052C113.384 53.9444 113.57 53.8158 113.774 53.7266C113.979 53.6375 114.2 53.5895 114.423 53.5856C114.646 53.5816 114.868 53.6217 115.076 53.7036L130.13 59.6364C130.549 59.8002 130.886 60.1233 131.068 60.5351C131.249 60.9468 131.26 61.4137 131.098 61.8336V61.8336Z" fill="#E5E5E5"/>
<path d="M129.24 66.552L127.121 71.9268C127.039 72.1347 126.917 72.3245 126.762 72.4853C126.607 72.646 126.422 72.7747 126.217 72.8638C126.012 72.953 125.792 73.0009 125.568 73.0048C125.345 73.0088 125.123 72.9687 124.915 72.8868L109.86 66.9528C109.652 66.8711 109.462 66.7492 109.302 66.5941C109.141 66.439 109.012 66.2538 108.923 66.0489C108.834 65.8441 108.786 65.6237 108.782 65.4004C108.778 65.177 108.818 64.9551 108.9 64.7472L111.019 59.3724C112.801 60.9463 114.783 62.2778 116.914 63.3324C117.098 63.426 117.287 63.5184 117.475 63.6096L116.935 64.98C116.925 65.0048 116.92 65.0314 116.921 65.0581C116.921 65.0848 116.927 65.1112 116.937 65.1357C116.948 65.1603 116.963 65.1825 116.982 65.2011C117.002 65.2196 117.024 65.2342 117.049 65.244L120.827 66.732C120.852 66.742 120.878 66.7469 120.905 66.7465C120.932 66.7461 120.958 66.7405 120.983 66.7299C121.007 66.7193 121.029 66.704 121.048 66.6848C121.066 66.6656 121.081 66.6429 121.091 66.618L121.632 65.2464C121.831 65.3088 122.032 65.3664 122.232 65.4288C124.508 66.1102 126.865 66.4879 129.24 66.552V66.552Z" fill="#E5E5E5"/>
<path d="M121.653 63.1556L118.886 62.0648C118.85 62.0507 118.809 62.0683 118.795 62.1041L117.705 64.8717C117.69 64.9074 117.708 64.9479 117.744 64.962L120.511 66.0527C120.547 66.0668 120.588 66.0492 120.602 66.0135L121.692 63.2459C121.707 63.2101 121.689 63.1697 121.653 63.1556Z" fill="#E5E5E5"/>
<path d="M125.71 60.9432L117.43 57.6792L120.17 53.1192C120.335 52.8449 120.592 52.6379 120.895 52.5353C121.198 52.4326 121.528 52.441 121.825 52.5588L125.988 54.1992C126.286 54.316 126.533 54.535 126.685 54.817C126.836 55.0991 126.882 55.4258 126.815 55.7388L125.71 60.9432ZM118.952 57.162L124.952 59.5248L125.8 55.5276C125.817 55.4547 125.807 55.3782 125.772 55.312C125.736 55.2459 125.679 55.1946 125.609 55.1676L121.44 53.532C121.371 53.5045 121.295 53.5025 121.225 53.5263C121.155 53.55 121.096 53.598 121.058 53.6616L118.952 57.162Z" fill="#E5E5E5"/>
<path d="M96.57 30.8808C96.3154 31.3185 95.9228 31.6594 95.4539 31.8503C94.9849 32.0411 94.4658 32.0711 93.978 31.9356C93.3899 32.5332 93.0295 33.3177 92.9592 34.1532C93.4932 34.4438 94.0852 34.6122 94.6922 34.6462C95.2993 34.6803 95.9064 34.5791 96.4696 34.3501C97.0328 34.1211 97.5382 33.7698 97.9492 33.3218C98.3602 32.8737 98.6666 32.34 98.8463 31.7592C98.2134 31.2095 97.408 30.8988 96.57 30.8808V30.8808ZM96.57 30.8808C96.3154 31.3185 95.9228 31.6594 95.4539 31.8503C94.9849 32.0411 94.4658 32.0711 93.978 31.9356C93.3899 32.5332 93.0295 33.3177 92.9592 34.1532C93.4932 34.4438 94.0852 34.6122 94.6922 34.6462C95.2993 34.6803 95.9064 34.5791 96.4696 34.3501C97.0328 34.1211 97.5382 33.7698 97.9492 33.3218C98.3602 32.8737 98.6666 32.34 98.8463 31.7592C98.2134 31.2095 97.408 30.8988 96.57 30.8808V30.8808ZM96.7008 19.2L84.0576 24.3396C83.9402 24.3877 83.8466 24.4804 83.7974 24.5973C83.7482 24.7143 83.7472 24.846 83.7948 24.9636L84.2316 26.0436L85.4664 25.5408C85.7421 25.4301 86.0504 25.4329 86.3241 25.5484C86.5978 25.6639 86.8149 25.8828 86.928 26.1576L86.9892 26.3076C87.0998 26.5833 87.0971 26.8916 86.9816 27.1653C86.866 27.4391 86.6471 27.6561 86.3724 27.7692L85.1376 28.272L85.5696 29.334L86.8044 28.8312C87.08 28.7195 87.3887 28.7218 87.6627 28.8374C87.9367 28.953 88.1536 29.1726 88.266 29.448L88.326 29.5968C88.4373 29.8723 88.4351 30.1807 88.3197 30.4546C88.2044 30.7285 87.9853 30.9456 87.7104 31.0584L86.4744 31.56L86.9064 32.622L88.1424 32.1204C88.418 32.0088 88.7267 32.011 89.0007 32.1266C89.2747 32.2422 89.4916 32.4618 89.604 32.7372L89.664 32.886C89.7753 33.1617 89.7729 33.4702 89.6573 33.7441C89.5417 34.018 89.3223 34.235 89.0472 34.3476L87.8124 34.8492L88.2444 35.9124L89.4804 35.4108C89.6167 35.3551 89.7627 35.3269 89.91 35.3278C90.0573 35.3286 90.203 35.3585 90.3388 35.4156C90.4745 35.4728 90.5976 35.5562 90.7011 35.661C90.8046 35.7658 90.8865 35.8899 90.942 36.0264L91.002 36.1752C91.1133 36.4509 91.1108 36.7594 90.9953 37.0333C90.8797 37.3072 90.6603 37.5242 90.3852 37.6368L89.1504 38.1396L89.5824 39.2028L90.8172 38.7C91.0925 38.5874 91.4012 38.5888 91.6755 38.7038C91.9498 38.8188 92.1672 39.038 92.28 39.3132L92.3412 39.462C92.4516 39.7374 92.4486 40.0452 92.3328 40.3184C92.217 40.5916 91.9978 40.8079 91.7232 40.92L90.4884 41.4228L90.9252 42.4968C90.9733 42.6142 91.066 42.7077 91.1829 42.7569C91.2999 42.8062 91.4315 42.8071 91.5492 42.7596L104.192 37.6188C104.31 37.5706 104.403 37.4779 104.453 37.361C104.502 37.2441 104.503 37.1124 104.455 36.9948L97.32 19.4628C97.2718 19.3466 97.1799 19.2539 97.0641 19.2048C96.9483 19.1556 96.8178 19.1539 96.7008 19.2ZM99.1331 29.172C99.1499 29.22 99.1656 29.2692 99.1812 29.3172C99.1908 29.346 99.1991 29.3748 99.2063 29.4024C99.2287 29.4776 99.2491 29.5532 99.2675 29.6292C99.2747 29.6568 99.2808 29.6856 99.2868 29.7132C99.2988 29.7672 99.3096 29.8212 99.318 29.8764C99.324 29.9052 99.3288 29.9364 99.3336 29.9676C99.3596 30.1329 99.3756 30.2996 99.3815 30.4668C99.3815 30.4992 99.3815 30.534 99.3815 30.5664C99.3815 30.6264 99.3815 30.6864 99.3815 30.7452C99.3815 30.7848 99.3815 30.8244 99.3815 30.8652C99.3815 30.906 99.3815 30.9312 99.3815 30.9636C99.3815 30.996 99.3755 31.044 99.3719 31.0836C99.3683 31.1232 99.372 31.1352 99.3636 31.1604C99.3552 31.1856 99.3551 31.2252 99.3503 31.2576L99.3359 31.3548C99.3215 31.4472 99.3035 31.5384 99.2819 31.6296C99.2735 31.6656 99.2652 31.7028 99.2556 31.7388C99.246 31.7748 99.2387 31.8024 99.2291 31.8336C99.2195 31.8648 99.2111 31.896 99.2015 31.9272C99.1919 31.9584 99.1824 31.9896 99.1728 32.0208C99.1632 32.052 99.1523 32.082 99.1403 32.1132C98.9328 32.7045 98.6019 33.245 98.1694 33.6986C97.737 34.1523 97.213 34.5088 96.6323 34.7444C96.0515 34.98 95.4273 35.0894 94.8011 35.0652C94.1748 35.0411 93.5608 34.884 93 34.6044L92.9136 34.5612L92.8272 34.5144L92.7408 34.4664C92.6856 34.4328 92.6292 34.3992 92.5752 34.3644C92.4648 34.2936 92.3568 34.218 92.2536 34.1388L92.1756 34.0764L92.1 34.014C92.0748 33.9924 92.0496 33.972 92.0256 33.9492L91.9524 33.8832C91.9224 33.8568 91.8936 33.8292 91.866 33.8016C91.8384 33.774 91.782 33.7164 91.746 33.6732C91.7227 33.6499 91.7007 33.6255 91.68 33.6C91.5667 33.4766 91.4617 33.3459 91.3656 33.2088L91.3128 33.132C91.2804 33.0876 91.2504 33.0408 91.2216 32.994C91.206 32.97 91.1904 32.9448 91.1772 32.9196C91.1364 32.8536 91.098 32.7852 91.0572 32.7156C91.0428 32.6904 91.0296 32.664 91.0152 32.6376C90.9924 32.592 90.9708 32.5452 90.9492 32.4996C90.9276 32.454 90.8916 32.3724 90.8652 32.3076C90.6324 31.7366 90.5218 31.1231 90.5406 30.5068C90.5595 29.8905 90.7072 29.2849 90.9744 28.7292C91.0044 28.6644 91.0368 28.602 91.0704 28.5396C91.104 28.4772 91.1388 28.4196 91.176 28.3548C91.212 28.2936 91.2492 28.2348 91.296 28.1748C91.3428 28.1148 91.3764 28.0548 91.416 28.0008C91.4556 27.9468 91.5012 27.8892 91.5468 27.8328C91.5912 27.7776 91.638 27.7236 91.686 27.6708C91.7412 27.6108 91.7964 27.5508 91.854 27.4956C91.9116 27.4404 91.974 27.384 92.0304 27.33L92.1228 27.2496C92.8328 26.6563 93.7105 26.2997 94.6332 26.2296C94.6728 26.2296 94.7148 26.2236 94.7532 26.2224C94.8348 26.2224 94.9152 26.2164 94.9932 26.2224C95.0712 26.2284 95.1552 26.2224 95.2332 26.2308C95.3112 26.2392 95.3748 26.2416 95.4468 26.2488C95.5188 26.256 95.5884 26.2668 95.658 26.2776C95.7276 26.2884 95.7984 26.3028 95.8668 26.3172C95.9352 26.3316 96.006 26.3472 96.0756 26.3664C96.1452 26.3856 96.2112 26.4036 96.2784 26.4252C96.3456 26.4468 96.414 26.4684 96.48 26.4924C97.0591 26.7043 97.5874 27.0351 98.0309 27.4636C98.4744 27.892 98.8233 28.4086 99.0552 28.98C99.0852 29.04 99.1091 29.1048 99.1331 29.1708V29.172ZM96.57 30.882C96.3154 31.3197 95.9228 31.6606 95.4539 31.8515C94.9849 32.0423 94.4658 32.0723 93.978 31.9368C93.3899 32.5344 93.0295 33.3189 92.9592 34.1544C93.4932 34.445 94.0852 34.6134 94.6922 34.6474C95.2993 34.6815 95.9064 34.5803 96.4696 34.3513C97.0328 34.1223 97.5382 33.771 97.9492 33.323C98.3602 32.8749 98.6666 32.3412 98.8463 31.7604C98.2136 31.2103 97.4082 30.8991 96.57 30.8808V30.882ZM96.57 30.882C96.3154 31.3197 95.9228 31.6606 95.4539 31.8515C94.9849 32.0423 94.4658 32.0723 93.978 31.9368C93.3899 32.5344 93.0295 33.3189 92.9592 34.1544C93.4932 34.445 94.0852 34.6134 94.6922 34.6474C95.2993 34.6815 95.9064 34.5803 96.4696 34.3513C97.0328 34.1223 97.5382 33.771 97.9492 33.323C98.3602 32.8749 98.6666 32.3412 98.8463 31.7604C98.2136 31.2103 97.4082 30.8991 96.57 30.8808V30.882ZM96.57 30.882C96.3154 31.3197 95.9228 31.6606 95.4539 31.8515C94.9849 32.0423 94.4658 32.0723 93.978 31.9368C93.3899 32.5344 93.0295 33.3189 92.9592 34.1544C93.4932 34.445 94.0852 34.6134 94.6922 34.6474C95.2993 34.6815 95.9064 34.5803 96.4696 34.3513C97.0328 34.1223 97.5382 33.771 97.9492 33.323C98.3602 32.8749 98.6666 32.3412 98.8463 31.7604C98.2136 31.2103 97.4082 30.8991 96.57 30.8808V30.882Z" fill="#E5E5E5"/>
<path d="M95.3006 31.4748C95.0291 31.5863 94.735 31.6315 94.4426 31.6068C94.0178 31.5738 93.6165 31.3983 93.3039 31.1088C92.9913 30.8193 92.7856 30.4327 92.7202 30.0117C92.6548 29.5906 92.7334 29.1598 92.9435 28.7891C93.1535 28.4183 93.4826 28.1294 93.8773 27.9691C94.2721 27.8087 94.7095 27.7864 95.1185 27.9057C95.5276 28.025 95.8843 28.279 96.131 28.6264C96.3777 28.9738 96.4998 29.3944 96.4776 29.8199C96.4554 30.2454 96.2901 30.651 96.0086 30.9708C95.8158 31.1925 95.5732 31.3653 95.3006 31.4748V31.4748Z" fill="#E5E5E5"/>
<path d="M85.9436 25.8576L82.879 27.1039C82.7144 27.1708 82.6353 27.3584 82.7022 27.5229L83.0046 28.2666C83.0715 28.4311 83.2592 28.5103 83.4237 28.4434L86.4883 27.1971C86.6529 27.1301 86.732 26.9425 86.6651 26.778L86.3627 26.0343C86.2958 25.8698 86.1082 25.7907 85.9436 25.8576Z" fill="#E5E5E5"/>
<path d="M87.281 29.1468L84.2164 30.3931C84.0518 30.46 83.9727 30.6477 84.0396 30.8122L84.342 31.5559C84.4089 31.7204 84.5966 31.7995 84.7611 31.7326L87.8258 30.4863C87.9903 30.4194 88.0694 30.2318 88.0025 30.0672L87.7001 29.3236C87.6332 29.159 87.4456 29.0799 87.281 29.1468Z" fill="#E5E5E5"/>
<path d="M88.6189 32.4371L85.5543 33.6834C85.3897 33.7503 85.3106 33.9379 85.3775 34.1025L85.6799 34.8461C85.7468 35.0107 85.9344 35.0898 86.099 35.0229L89.1636 33.7766C89.3282 33.7097 89.4073 33.5221 89.3404 33.3575L89.038 32.6139C88.9711 32.4493 88.7835 32.3702 88.6189 32.4371Z" fill="#E5E5E5"/>
<path d="M89.9578 35.7276L86.8931 36.9739C86.7286 37.0408 86.6495 37.2284 86.7164 37.3929L87.0188 38.1366C87.0857 38.3011 87.2733 38.3803 87.4378 38.3134L90.5025 37.0671C90.6671 37.0001 90.7462 36.8125 90.6793 36.648L90.3769 35.9043C90.31 35.7398 90.1223 35.6607 89.9578 35.7276Z" fill="#E5E5E5"/>
<path d="M91.2952 39.0168L88.2305 40.2631C88.066 40.33 87.9869 40.5176 88.0538 40.6821L88.3562 41.4258C88.4231 41.5903 88.6107 41.6695 88.7753 41.6025L91.8399 40.3562C92.0045 40.2893 92.0836 40.1017 92.0167 39.9372L91.7143 39.1935C91.6474 39.029 91.4598 38.9498 91.2952 39.0168Z" fill="#E5E5E5"/>
<path d="M56.5454 -9.50399C54.1892 -8.86548 52.183 -7.31742 50.9679 -5.20015C49.7527 -3.08288 49.4281 -0.569718 50.0654 1.78681C50.7039 4.14302 52.252 6.14922 54.3692 7.36436C56.4865 8.5795 58.9997 8.90411 61.3562 8.26681C63.7126 7.62859 65.719 6.08058 66.9342 3.96323C68.1494 1.84587 68.4738 -0.667442 67.8362 -3.02399C67.1977 -5.38019 65.6496 -7.3864 63.5324 -8.60154C61.4151 -9.81668 58.9019 -10.1413 56.5454 -9.50399V-9.50399ZM61.0202 7.04641C58.9878 7.59585 56.8204 7.31551 54.9947 6.26706C53.1689 5.21862 51.8344 3.48792 51.2846 1.45561C51.0126 0.448952 50.9416 -0.601427 51.0757 -1.63553C51.2097 -2.66964 51.5461 -3.66721 52.0658 -4.57127C52.5854 -5.47534 53.278 -6.26819 54.1041 -6.90453C54.9301 -7.54088 55.8735 -8.00826 56.8802 -8.27999C58.9123 -8.82862 61.0791 -8.54773 62.9041 -7.49908C64.7291 -6.45043 66.0629 -4.71988 66.6122 -2.68799C66.8844 -1.68164 66.9556 -0.631527 66.8219 0.402365C66.6882 1.43626 66.3521 2.43367 65.8328 3.33764C65.3135 4.2416 64.6212 5.03441 63.7954 5.67077C62.9697 6.30713 62.0267 6.77458 61.0202 7.04641Z" fill="#E5E5E5"/>
<path d="M58.824 1.59001C59.5589 1.59001 60.1548 0.994186 60.1548 0.259206C60.1548 -0.475775 59.5589 -1.07159 58.824 -1.07159C58.089 -1.07159 57.4932 -0.475775 57.4932 0.259206C57.4932 0.994186 58.089 1.59001 58.824 1.59001Z" fill="#E5E5E5"/>
<path d="M63.4522 2.59083C63.4296 2.63428 63.3983 2.67265 63.3604 2.7036C63.3224 2.73455 63.2785 2.75743 63.2314 2.77083C63.1482 2.79319 63.0596 2.78378 62.983 2.74443L60.187 1.33563C60.3311 1.15318 60.4376 0.943935 60.5002 0.720032L63.2962 2.13003C63.3772 2.17124 63.4389 2.24253 63.4681 2.32864C63.4972 2.41476 63.4915 2.50887 63.4522 2.59083V2.59083Z" fill="#E5E5E5"/>
<path d="M31.4122 -4.15801C31.0174 -4.66561 31.0162 -5.32441 31.4254 -5.77681L33.919 -8.53681C33.9869 -8.60968 34.0461 -8.69023 34.0954 -8.77681C34.4926 -9.51361 33.6502 -9.91561 33.0478 -9.80641C32.5966 -9.72361 32.233 -9.44641 31.8382 -9.24961C31.4434 -9.05281 30.9394 -8.91481 30.5182 -9.12001C29.9026 -9.42241 29.821 -10.2576 29.2222 -10.59C29.0728 -10.6727 28.9043 -10.7148 28.7335 -10.7121C28.5628 -10.7093 28.3957 -10.6619 28.249 -10.5744C27.997 -10.4112 27.8578 -10.1232 27.5758 -10.0044C27.1966 -9.84481 26.7202 -10.0596 26.4142 -10.3488C26.005 -10.7352 25.7614 -11.2548 25.1866 -11.502C25.0775 -11.5516 24.9591 -11.5772 24.8392 -11.5772C24.7194 -11.5772 24.6009 -11.5516 24.4918 -11.502C24.0418 -11.2908 24.1198 -10.752 24.2398 -10.32C24.4702 -9.44881 24.7014 -8.57841 24.9334 -7.70881C25.0136 -7.40868 24.9763 -7.08927 24.8292 -6.81568C24.682 -6.5421 24.436 -6.33493 24.1414 -6.23641C21.127 -5.12281 18.4246 -2.10241 17.4778 1.20359C16.1182 5.94479 19.2658 8.19119 23.5882 9.43199C27.9106 10.6728 31.7722 10.4352 33.1318 5.69399C34.0798 2.38559 33.3838 -1.61761 31.4122 -4.15801ZM24.9322 6.0288L24.5086 7.50719L23.6134 7.2504L24.025 5.81039C23.2042 5.55959 22.4254 5.05919 22.0294 4.56119L22.645 3.7068C23.1405 4.27811 23.7899 4.6947 24.5158 4.9068C25.5238 5.196 26.3734 4.8108 26.6062 3.9996C26.8294 3.2184 26.4142 2.5764 25.4854 1.848C24.199 0.863995 23.491 -0.0468046 23.845 -1.284C24.1798 -2.46 25.2754 -3.11401 26.6398 -2.95321L27.0514 -4.39321L27.9322 -4.1412L27.541 -2.76001C28.1881 -2.57007 28.7753 -2.21672 29.2462 -1.734L28.621 -0.894005C28.1727 -1.37157 27.6014 -1.71621 26.9698 -1.89001C25.8754 -2.20441 25.2766 -1.6692 25.1134 -1.1004C24.901 -0.360005 25.3198 0.158395 26.4106 1.0248C27.703 2.0424 28.2298 2.99279 27.8674 4.25759C27.5446 5.37959 26.4622 6.2076 24.9286 6.0288H24.9322Z" fill="#E5E5E5"/>
<path d="M82.4651 110.53L78.6455 126.638L82.8227 127.63L86.6399 111.52L82.4651 110.53ZM80.9375 126.28C80.7035 126.224 80.4912 126.101 80.3275 125.925C80.1637 125.749 80.0558 125.528 80.0175 125.29C79.9791 125.053 80.012 124.81 80.112 124.591C80.212 124.372 80.3746 124.188 80.5793 124.062C80.7839 123.936 81.0214 123.873 81.2617 123.882C81.502 123.891 81.7343 123.97 81.9292 124.111C82.1241 124.252 82.2729 124.447 82.3568 124.673C82.4407 124.898 82.4558 125.143 82.4003 125.377C82.3256 125.691 82.1297 125.962 81.8555 126.131C81.5813 126.3 81.2511 126.353 80.9375 126.28V126.28ZM83.4251 121.055L81.0587 120.493L83.1599 111.649L85.5263 112.21L83.4251 121.055Z" fill="#E5E5E5"/>
<path d="M86.269 112.14L87.2098 128.669L91.4962 128.429L90.5542 111.9L86.269 112.14ZM89.3038 127.67C89.0638 127.684 88.825 127.627 88.6177 127.505C88.4104 127.383 88.244 127.202 88.1393 126.986C88.0347 126.769 87.9966 126.527 88.0299 126.288C88.0632 126.05 88.1664 125.827 88.3264 125.648C88.4864 125.468 88.6961 125.34 88.9289 125.28C89.1616 125.22 89.4071 125.23 89.6341 125.309C89.8612 125.388 90.0596 125.533 90.2044 125.725C90.3492 125.917 90.4337 126.148 90.4474 126.388C90.4655 126.709 90.3552 127.025 90.1408 127.265C89.9264 127.506 89.6255 127.652 89.3038 127.67V127.67ZM90.1954 121.952L87.7666 122.09L87.2506 113.016L89.6782 112.878L90.1954 121.952Z" fill="#E5E5E5"/>
<path d="M90.6646 114.755L95.4142 130.614L99.5266 129.383L94.7758 113.52L90.6646 114.755ZM97.219 129.155C96.9886 129.224 96.743 129.223 96.5132 129.152C96.2834 129.082 96.0797 128.944 95.9279 128.758C95.7761 128.572 95.6829 128.344 95.6602 128.105C95.6376 127.866 95.6864 127.625 95.8005 127.413C95.9146 127.202 96.0889 127.029 96.3013 126.916C96.5138 126.804 96.7548 126.757 96.994 126.781C97.2332 126.805 97.4597 126.9 97.645 127.053C97.8303 127.207 97.966 127.411 98.035 127.642C98.0809 127.795 98.0963 127.955 98.0802 128.114C98.0641 128.273 98.0168 128.428 97.941 128.568C97.8652 128.709 97.7624 128.834 97.6385 128.935C97.5147 129.036 97.3721 129.111 97.219 129.157V129.155ZM96.7606 123.385L94.4302 124.084L91.8226 115.376L94.1518 114.678L96.7606 123.385Z" fill="#E5E5E5"/>
<path d="M56.5455 110.496C54.7877 110.972 53.2105 111.958 52.0133 113.33C50.816 114.702 50.0526 116.398 49.8194 118.204C49.5863 120.01 49.8939 121.845 50.7035 123.476C51.513 125.107 52.7881 126.461 54.3674 127.368C55.9468 128.274 57.7594 128.692 59.5762 128.568C61.3929 128.444 63.1321 127.784 64.5738 126.672C66.0156 125.56 67.095 124.045 67.6758 122.319C68.2565 120.593 68.3123 118.734 67.8363 116.976C67.1978 114.62 65.6497 112.614 63.5325 111.398C61.4152 110.183 58.902 109.859 56.5455 110.496V110.496ZM61.0203 127.046C59.5047 127.456 57.9017 127.407 56.4139 126.906C54.9262 126.404 53.6205 125.473 52.6621 124.229C51.7037 122.986 51.1355 121.486 51.0294 119.92C50.9234 118.353 51.2841 116.791 52.0662 115.429C52.8482 114.068 54.0164 112.969 55.4229 112.272C56.8295 111.574 58.4112 111.309 59.9682 111.511C61.5252 111.712 62.9875 112.371 64.1701 113.404C65.3527 114.436 66.2026 115.796 66.6123 117.312C67.1613 119.344 66.8806 121.512 65.832 123.337C64.7833 125.163 63.0525 126.497 61.0203 127.046Z" fill="#E5E5E5"/>
<path d="M58.824 121.59C59.5589 121.59 60.1548 120.994 60.1548 120.259C60.1548 119.524 59.5589 118.928 58.824 118.928C58.089 118.928 57.4932 119.524 57.4932 120.259C57.4932 120.994 58.089 121.59 58.824 121.59Z" fill="#E5E5E5"/>
<path d="M57.4644 113.896L58.716 118.525C58.5996 118.533 58.4842 118.552 58.3716 118.583C58.2586 118.612 58.1488 118.652 58.044 118.703L56.7924 114.073C56.7682 113.984 56.7804 113.889 56.8264 113.809C56.8723 113.729 56.9481 113.67 57.0372 113.646C57.1263 113.622 57.2214 113.634 57.3015 113.68C57.3816 113.726 57.4402 113.802 57.4644 113.891V113.896Z" fill="#E5E5E5"/>
<path d="M31.4122 115.842C31.0174 115.334 31.0162 114.676 31.4254 114.223L33.919 111.463C33.9869 111.39 34.0461 111.31 34.0954 111.223C34.4926 110.486 33.6502 110.084 33.0478 110.194C32.5966 110.276 32.233 110.554 31.8382 110.75C31.4434 110.947 30.9394 111.085 30.5182 110.88C29.9026 110.578 29.821 109.742 29.2222 109.41C29.0728 109.327 28.9043 109.285 28.7335 109.288C28.5628 109.291 28.3957 109.338 28.249 109.426C27.997 109.589 27.8578 109.877 27.5758 109.996C27.1966 110.155 26.7202 109.94 26.4142 109.651C26.005 109.265 25.7614 108.745 25.1866 108.498C25.0775 108.448 24.9591 108.423 24.8392 108.423C24.7194 108.423 24.6009 108.448 24.4918 108.498C24.043 108.718 24.1246 109.256 24.2398 109.691C24.4702 110.562 24.7014 111.432 24.9334 112.302C25.0136 112.602 24.9763 112.922 24.8292 113.195C24.682 113.469 24.436 113.676 24.1414 113.774C21.127 114.888 18.4246 117.908 17.4778 121.214C16.1182 125.956 19.2658 128.202 23.5882 129.443C27.9106 130.684 31.7722 130.446 33.1318 125.705C34.0798 122.386 33.3838 118.382 31.4122 115.842ZM24.9322 126.029L24.5086 127.507L23.6134 127.25L24.025 125.81C23.2042 125.56 22.4254 125.059 22.0294 124.561L22.645 123.707C23.1405 124.278 23.7899 124.695 24.5158 124.907C25.5238 125.196 26.3734 124.811 26.6062 124C26.8294 123.218 26.4142 122.576 25.4854 121.848C24.199 120.864 23.491 119.953 23.845 118.716C24.1834 117.538 25.279 116.884 26.6482 117.044L27.0598 115.604L27.9406 115.856L27.5446 117.236C28.1917 117.426 28.7789 117.78 29.2498 118.262L28.6246 119.102C28.1763 118.625 27.605 118.28 26.9734 118.106C25.879 117.792 25.2802 118.327 25.117 118.896C24.9046 119.635 25.3246 120.155 26.4142 121.021C27.7066 122.039 28.2334 122.989 27.871 124.254C27.5446 125.38 26.4622 126.208 24.9286 126.029H24.9322Z" fill="#E5E5E5"/>
<path d="M121.622 30.4992L114.492 33.3876C114.228 32.7387 114.147 32.0299 114.257 31.338C114.367 30.6461 114.664 29.9975 115.116 29.4624C115.741 29.607 116.396 29.5552 116.991 29.314C117.586 29.0728 118.092 28.6541 118.44 28.1148C119.137 28.1839 119.803 28.4427 120.364 28.863C120.925 29.2833 121.36 29.8492 121.622 30.4992Z" fill="#E5E5E5"/>
<path d="M115.818 28.9344C117.21 28.9344 118.338 27.8062 118.338 26.4144C118.338 25.0227 117.21 23.8944 115.818 23.8944C114.426 23.8944 113.298 25.0227 113.298 26.4144C113.298 27.8062 114.426 28.9344 115.818 28.9344Z" fill="#E5E5E5"/>
<path d="M123.84 16.7688L116.71 19.6572C116.446 19.0083 116.364 18.2995 116.474 17.6076C116.584 16.9157 116.882 16.2671 117.334 15.732C117.96 15.8774 118.615 15.826 119.211 15.5848C119.806 15.3436 120.313 14.9243 120.661 14.3844C121.358 14.4541 122.023 14.7132 122.583 15.1335C123.143 15.5537 123.578 16.1193 123.84 16.7688V16.7688Z" fill="#E5E5E5"/>
<path d="M118.032 15.2028C119.424 15.2028 120.552 14.0745 120.552 12.6828C120.552 11.291 119.424 10.1628 118.032 10.1628C116.64 10.1628 115.512 11.291 115.512 12.6828C115.512 14.0745 116.64 15.2028 118.032 15.2028Z" fill="#E5E5E5"/>
<path d="M117.987 17.7197L116.891 25.5636L117.294 25.6199L118.389 17.776L117.987 17.7197Z" fill="#E5E5E5"/>
<path d="M128.245 25.8803L119.284 29.5099L119.437 29.887L128.398 26.2573L128.245 25.8803Z" fill="#E5E5E5"/>
<path d="M38.6963 40.6368L37.7531 43.6116L20.5679 38.1672L21.5111 35.1924L23.0471 35.6796L22.7567 36.6C22.7002 36.768 22.6778 36.9455 22.6907 37.1223C22.7036 37.299 22.7516 37.4714 22.8319 37.6294C22.9122 37.7874 23.0231 37.9278 23.1582 38.0425C23.2934 38.1571 23.45 38.2437 23.6189 38.2972C23.7879 38.3507 23.9658 38.37 24.1423 38.3539C24.3188 38.3379 24.4903 38.2869 24.6468 38.2038C24.8034 38.1208 24.9418 38.0074 25.0541 37.8703C25.1664 37.7332 25.2502 37.5751 25.3007 37.4052L25.5911 36.4884L26.1215 36.6564L25.8311 37.5732C25.7769 37.7406 25.7563 37.917 25.7705 38.0924C25.7848 38.2677 25.8336 38.4385 25.9141 38.595C25.9946 38.7514 26.1052 38.8904 26.2397 39.0039C26.3741 39.1174 26.5296 39.2032 26.6974 39.2563C26.8651 39.3095 27.0416 39.329 27.2169 39.3136C27.3922 39.2983 27.5627 39.2484 27.7186 39.167C27.8745 39.0855 28.0128 38.974 28.1255 38.8388C28.2381 38.7037 28.323 38.5476 28.3751 38.3796L28.6655 37.4628L29.1947 37.6296L28.9043 38.5476C28.8478 38.7156 28.8254 38.8931 28.8383 39.0699C28.8512 39.2466 28.8992 39.419 28.9795 39.577C29.0598 39.735 29.1707 39.8754 29.3058 39.9901C29.441 40.1047 29.5976 40.1913 29.7665 40.2448C29.9355 40.2983 30.1134 40.3176 30.2899 40.3015C30.4664 40.2855 30.6379 40.2345 30.7944 40.1514C30.951 40.0684 31.0894 39.955 31.2017 39.8179C31.314 39.6808 31.3978 39.5227 31.4483 39.3528L31.7387 38.436L32.2691 38.604L31.9787 39.5208C31.8743 39.8574 31.9073 40.2217 32.0705 40.5341C32.2338 40.8465 32.514 41.0816 32.85 41.1881C33.186 41.2946 33.5504 41.2638 33.8638 41.1025C34.1772 40.9412 34.4141 40.6625 34.5227 40.3272L34.8131 39.4104L35.3423 39.5772L35.0519 40.4952C34.9954 40.6632 34.973 40.8407 34.9859 41.0175C34.9988 41.1942 35.0468 41.3666 35.1271 41.5246C35.2074 41.6826 35.3183 41.823 35.4534 41.9377C35.5885 42.0523 35.7452 42.1389 35.9141 42.1924C36.0831 42.2459 36.261 42.2652 36.4375 42.2491C36.614 42.2331 36.7855 42.1821 36.942 42.099C37.0986 42.016 37.237 41.9026 37.3493 41.7655C37.4616 41.6284 37.5454 41.4703 37.5959 41.3004L37.8863 40.3836L38.6963 40.6368Z" fill="#E5E5E5"/>
<path d="M20.4002 38.6928L16.6802 50.4348L25.7858 53.3148C25.6565 52.0246 25.9149 50.7251 26.528 49.5825C27.1411 48.4399 28.0811 47.5062 29.2278 46.9007C30.3744 46.2952 31.6756 46.0454 32.9649 46.1833C34.2542 46.3212 35.4731 46.8405 36.4658 47.6748L37.589 44.13L20.4002 38.6928ZM20.2298 49.7568L18.4298 49.1868L19.001 47.3868L20.801 47.9568L20.2298 49.7568ZM21.3494 46.2204L19.5494 45.6504L20.1206 43.8504L21.9206 44.4204L21.3494 46.2204ZM22.4702 42.6828L20.6702 42.1128L21.2402 40.3128L23.0402 40.884L22.4702 42.6828ZM23.4002 50.76L21.6002 50.19L22.1702 48.39L23.9702 48.96L23.4002 50.76ZM24.521 47.2236L22.721 46.6536L23.291 44.8536L25.091 45.4236L24.521 47.2236ZM25.6418 43.686L23.8418 43.1148L24.4118 41.3148L26.2118 41.886L25.6418 43.686ZM28.811 44.6904L27.011 44.1204L27.5822 42.3204L29.3822 42.8916L28.811 44.6904ZM31.9814 45.6948L30.1814 45.1236L30.7514 43.3236L32.5514 43.8948L31.9814 45.6948Z" fill="#E5E5E5"/>
<path d="M33.984 47.2801C32.917 46.9418 31.7736 46.9276 30.6985 47.2392C29.6233 47.5509 28.6648 48.1743 27.944 49.0308C27.2233 49.8872 26.7727 50.9382 26.6493 52.0507C26.5258 53.1632 26.7351 54.2874 27.2506 55.281C27.7661 56.2746 28.5647 57.093 29.5454 57.6327C30.5261 58.1724 31.6448 58.4091 32.76 58.313C33.8752 58.2169 34.9369 57.7921 35.8107 57.0926C36.6846 56.393 37.3313 55.45 37.6692 54.3829C37.8938 53.6745 37.9766 52.9289 37.913 52.1885C37.8493 51.4481 37.6404 50.7276 37.2982 50.068C36.9559 49.4084 36.4871 48.8226 35.9184 48.3443C35.3498 47.8659 34.6925 47.5043 33.984 47.2801V47.2801ZM31.6236 55.6969L31.308 56.6929L30.708 56.5009L31.014 55.5337C30.462 55.3489 29.9412 54.9949 29.682 54.6493L30.1152 54.0805C30.4415 54.4768 30.8746 54.7713 31.3632 54.9289C32.0436 55.1449 32.6268 54.8977 32.8032 54.3517C32.97 53.8249 32.7 53.3809 32.0832 52.8697C31.2276 52.1773 30.7632 51.5497 31.0272 50.7097C31.2792 49.9141 32.0364 49.4905 32.9616 49.6297L33.2676 48.6625L33.8676 48.8496L33.5724 49.7797C34.0084 49.921 34.4006 50.1723 34.7112 50.5093L34.272 51.0637C33.9757 50.7319 33.5944 50.4875 33.1692 50.3569C32.4312 50.1241 32.0136 50.4769 31.8924 50.8585C31.7352 51.3565 32.0124 51.7177 32.7324 52.3273C33.5916 53.0401 33.9324 53.6965 33.6612 54.5485C33.4116 55.3069 32.6604 55.8481 31.6236 55.6993V55.6969Z" fill="#E5E5E5"/>
<path d="M25.2532 34.4537L24.4936 34.213C24.2838 34.1466 24.0599 34.2628 23.9934 34.4725L23.1486 37.1391C23.0821 37.3488 23.1983 37.5727 23.408 37.6392L24.1676 37.8799C24.3774 37.9463 24.6013 37.8301 24.6678 37.6204L25.5126 34.9538C25.5791 34.7441 25.4629 34.5202 25.2532 34.4537Z" fill="#E5E5E5"/>
<path d="M28.3249 35.4276L27.5653 35.187C27.3556 35.1205 27.1317 35.2367 27.0652 35.4464L26.2204 38.113C26.1539 38.3228 26.2701 38.5467 26.4798 38.6131L27.2394 38.8538C27.4492 38.9203 27.6731 38.8041 27.7395 38.5943L28.5844 35.9278C28.6508 35.718 28.5347 35.4941 28.3249 35.4276Z" fill="#E5E5E5"/>
<path d="M31.4001 36.4019L30.6405 36.1613C30.4308 36.0948 30.2069 36.211 30.1404 36.4207L29.2955 39.0873C29.2291 39.2971 29.3453 39.521 29.555 39.5874L30.3146 39.8281C30.5244 39.8946 30.7483 39.7784 30.8147 39.5686L31.6596 36.9021C31.726 36.6923 31.6099 36.4684 31.4001 36.4019Z" fill="#E5E5E5"/>
<path d="M34.4734 37.3759L33.7138 37.1352C33.504 37.0688 33.2801 37.1849 33.2137 37.3947L32.3688 40.0612C32.3023 40.271 32.4185 40.4949 32.6283 40.5614L33.3878 40.802C33.5976 40.8685 33.8215 40.7523 33.888 40.5426L34.7328 37.876C34.7993 37.6663 34.6831 37.4423 34.4734 37.3759Z" fill="#E5E5E5"/>
<path d="M37.5456 38.3486L36.786 38.1079C36.5763 38.0415 36.3524 38.1576 36.2859 38.3674L35.4411 41.034C35.3746 41.2437 35.4908 41.4676 35.7005 41.5341L36.4601 41.7748C36.6699 41.8412 36.8938 41.725 36.9602 41.5153L37.8051 38.8487C37.8715 38.639 37.7554 38.4151 37.5456 38.3486Z" fill="#E5E5E5"/>
<path d="M93.5664 96.12C93.495 96.1489 93.415 96.1484 93.3439 96.1185C93.2728 96.0886 93.2165 96.0317 93.1872 95.9604L85.89 78.0084C85.8738 77.9728 85.8649 77.9342 85.8639 77.895C85.8629 77.8559 85.8698 77.8169 85.8843 77.7805C85.8987 77.7441 85.9204 77.711 85.948 77.6831C85.9756 77.6553 86.0086 77.6334 86.0449 77.6186C86.0812 77.6039 86.1201 77.5966 86.1592 77.5973C86.1984 77.598 86.2371 77.6066 86.2728 77.6226C86.3086 77.6386 86.3407 77.6617 86.3673 77.6905C86.3939 77.7192 86.4145 77.7531 86.4276 77.79L93.72 95.736C93.7356 95.7712 93.744 95.8092 93.7447 95.8477C93.7454 95.8863 93.7384 95.9245 93.724 95.9603C93.7097 95.9961 93.6884 96.0286 93.6614 96.0561C93.6343 96.0835 93.602 96.1052 93.5664 96.12V96.12Z" fill="#E5E5E5"/>
<path d="M110.124 86.8452L90.3838 94.8721C90.3481 94.8883 90.3096 94.8973 90.2704 94.8982C90.2312 94.8992 90.1923 94.8923 90.1558 94.8778C90.1194 94.8634 90.0863 94.8417 90.0585 94.8141C90.0307 94.7865 90.0088 94.7535 89.994 94.7172C89.9793 94.6809 89.972 94.642 89.9727 94.6029C89.9734 94.5637 89.982 94.525 89.998 94.4893C90.014 94.4535 90.0371 94.4214 90.0659 94.3948C90.0946 94.3682 90.1285 94.3476 90.1654 94.3345L109.904 86.3076C109.94 86.2925 109.978 86.2845 110.016 86.2842C110.055 86.284 110.093 86.2914 110.129 86.306C110.164 86.3206 110.197 86.3422 110.224 86.3695C110.251 86.3967 110.273 86.4292 110.287 86.4648C110.302 86.5005 110.309 86.5387 110.309 86.5773C110.308 86.6158 110.3 86.6539 110.285 86.6893C110.27 86.7247 110.248 86.7567 110.22 86.7835C110.192 86.8103 110.16 86.8313 110.124 86.8452V86.8452Z" fill="#E5E5E5"/>
<path d="M91.9989 78.3852L89.3511 79.462L94.0551 91.0293L96.7029 89.9525L91.9989 78.3852Z" fill="#E5E5E5"/>
<path d="M98.0262 78.3198L95.3784 79.3966L99.2502 88.9174L101.898 87.8407L98.0262 78.3198Z" fill="#E5E5E5"/>
<path d="M104.106 78.3835L101.458 79.4603L104.446 86.8057L107.093 85.7289L104.106 78.3835Z" fill="#E5E5E5"/>
<path d="M125.934 112.477L108.001 106.144C107.936 106.121 107.865 106.155 107.842 106.22L107.423 107.405C107.4 107.47 107.435 107.541 107.5 107.564L125.433 113.897C125.498 113.92 125.569 113.886 125.592 113.821L126.011 112.636C126.034 112.571 125.999 112.5 125.934 112.477Z" fill="#E5E5E5"/>
<path d="M128.572 102.522L125.153 112.2L124.193 111.862L126.676 104.832C126.861 104.303 126.84 103.724 126.618 103.21C126.395 102.696 125.986 102.285 125.474 102.058C124.961 101.832 124.382 101.808 123.852 101.99C123.322 102.172 122.88 102.547 122.615 103.04L120.02 110.388L119.04 110.04L121.636 102.69C121.734 102.168 121.643 101.627 121.378 101.167C121.113 100.706 120.691 100.356 120.19 100.179C119.689 100.002 119.141 100.01 118.645 100.202C118.15 100.394 117.739 100.757 117.488 101.226L114.893 108.575L113.91 108.228L116.506 100.878C116.61 100.327 116.502 99.7564 116.204 99.2811C115.906 98.8058 115.439 98.4607 114.897 98.3147C114.355 98.1688 113.779 98.2329 113.282 98.4941C112.785 98.7554 112.406 99.1945 112.219 99.7236L109.736 106.753L108.776 106.416L112.2 96.738L128.572 102.522Z" fill="#E5E5E5"/>
<path d="M129.193 102.144L111.643 95.946C111.595 95.9294 111.554 95.8981 111.525 95.8566C111.496 95.8151 111.481 95.7655 111.482 95.715C111.483 95.6644 111.5 95.6155 111.53 95.5751C111.561 95.5347 111.603 95.5049 111.651 95.49L117.542 93.642C117.579 94.6138 117.907 95.552 118.484 96.3349C119.061 97.1178 119.86 97.7093 120.777 98.0327C121.694 98.3561 122.687 98.3964 123.627 98.1484C124.568 97.9005 125.412 97.3756 126.05 96.642L129.473 101.778C129.503 101.82 129.52 101.87 129.519 101.922C129.519 101.974 129.501 102.024 129.47 102.066C129.438 102.107 129.394 102.137 129.344 102.151C129.294 102.165 129.241 102.163 129.193 102.144V102.144Z" fill="#E5E5E5"/>
<path d="M123.753 89.6064C122.99 89.3369 122.164 89.2996 121.381 89.4992C120.597 89.6988 119.89 90.1265 119.349 90.728C118.808 91.3295 118.458 92.0778 118.342 92.8784C118.227 93.679 118.351 94.4959 118.7 95.2257C119.049 95.9556 119.606 96.5656 120.302 96.9786C120.997 97.3916 121.8 97.5891 122.607 97.5461C123.415 97.5031 124.192 97.2215 124.84 96.737C125.487 96.2524 125.977 95.5867 126.246 94.824C126.607 93.8014 126.547 92.6774 126.079 91.699C125.612 90.7207 124.775 89.968 123.753 89.6064ZM121.848 95.6304L121.596 96.342L121.165 96.1896L121.405 95.4984C121.035 95.3669 120.709 95.1345 120.465 94.8276L120.791 94.4268C121.017 94.7216 121.323 94.9449 121.673 95.07C122.153 95.2416 122.586 95.0772 122.724 94.686C122.862 94.2948 122.673 93.9828 122.238 93.5988C121.638 93.078 121.317 92.6112 121.527 92.016C121.727 91.4484 122.284 91.1592 122.95 91.2792L123.19 90.588L123.615 90.738L123.375 91.4016C123.686 91.5141 123.963 91.705 124.18 91.956L123.849 92.346C123.642 92.0992 123.373 91.9137 123.069 91.8096C122.542 91.6236 122.229 91.8684 122.135 92.142C122.015 92.502 122.2 92.7648 122.709 93.222C123.309 93.7584 123.541 94.2396 123.327 94.8492C123.149 95.3892 122.593 95.76 121.848 95.6304V95.6304Z" fill="#E5E5E5"/>
<path d="M11.099 61.8336L9.56296 65.73C7.18315 65.691 4.81977 65.3277 2.53816 64.65C2.33896 64.5924 2.13856 64.53 1.93816 64.47L2.44096 63.192C2.45073 63.1668 2.45537 63.1399 2.4546 63.1129C2.45384 63.0859 2.44768 63.0593 2.4365 63.0348C2.42533 63.0102 2.40935 62.988 2.38951 62.9697C2.36966 62.9514 2.34636 62.9372 2.32096 62.928L-1.45664 61.4388C-1.48176 61.4292 -1.50853 61.4247 -1.5354 61.4256C-1.56227 61.4264 -1.5887 61.4326 -1.61315 61.4438C-1.6376 61.455 -1.65959 61.4709 -1.67784 61.4906C-1.69609 61.5104 -1.71023 61.5335 -1.71944 61.5588L-2.22344 62.8368C-2.41184 62.7468 -2.59904 62.6532 -2.78504 62.5608C-4.91803 61.5011 -6.8963 60.1551 -8.66504 58.56L-7.12904 54.6636C-7.04731 54.4557 -6.92541 54.2659 -6.77032 54.1052C-6.61523 53.9444 -6.42997 53.8158 -6.22515 53.7266C-6.02032 53.6375 -5.79994 53.5895 -5.57658 53.5856C-5.35323 53.5816 -5.13129 53.6217 -4.92344 53.7036L10.1402 59.6268C10.5599 59.7924 10.8967 60.1178 11.0765 60.5317C11.2563 60.9455 11.2644 61.4138 11.099 61.8336V61.8336Z" fill="#E5E5E5"/>
<path d="M9.24002 66.552L7.11962 71.9268C7.03789 72.1347 6.91599 72.3245 6.7609 72.4853C6.60581 72.646 6.42055 72.7747 6.21573 72.8638C6.0109 72.953 5.79051 73.0009 5.56716 73.0048C5.34381 73.0088 5.12187 72.9687 4.91402 72.8868L-10.14 66.9528C-10.3479 66.8711 -10.5376 66.7492 -10.6984 66.5941C-10.8592 66.439 -10.9878 66.2538 -11.077 66.0489C-11.1661 65.8441 -11.214 65.6237 -11.218 65.4004C-11.2219 65.177 -11.1818 64.9551 -11.1 64.7472L-8.98078 59.3724C-7.19897 60.9463 -5.21702 62.2778 -3.08638 63.3324C-2.90158 63.426 -2.71318 63.5184 -2.52478 63.6096L-3.06478 64.98C-3.07455 65.0052 -3.07919 65.0321 -3.07842 65.0591C-3.07766 65.0861 -3.07151 65.1127 -3.06033 65.1373C-3.04915 65.1619 -3.03317 65.184 -3.01333 65.2023C-2.99349 65.2207 -2.97018 65.2348 -2.94478 65.244L0.828017 66.726C0.852829 66.736 0.879357 66.7409 0.906077 66.7405C0.932797 66.7401 0.959182 66.7345 0.983715 66.7239C1.00825 66.7133 1.03045 66.698 1.04903 66.6788C1.06762 66.6596 1.08223 66.6369 1.09202 66.612L1.63322 65.2404C1.83242 65.3028 2.03282 65.3604 2.23322 65.4228C4.5089 66.1061 6.86488 66.4858 9.24002 66.552V66.552Z" fill="#E5E5E5"/>
<path d="M1.65268 63.1575L-1.11493 62.0668C-1.1507 62.0527 -1.19111 62.0703 -1.20521 62.106L-2.29596 64.8736C-2.31005 64.9094 -2.29249 64.9498 -2.25673 64.9639L0.51089 66.0547C0.546652 66.0688 0.587069 66.0512 0.601163 66.0154L1.69191 63.2478C1.70601 63.212 1.68844 63.1716 1.65268 63.1575Z" fill="#E5E5E5"/>
<path d="M5.70969 60.9432L-2.57031 57.6792L0.170487 53.1192C0.335254 52.8456 0.591695 52.6393 0.894236 52.5369C1.19678 52.4345 1.52582 52.4427 1.82289 52.56L5.98569 54.204C6.2838 54.3208 6.53067 54.5397 6.68215 54.8218C6.83362 55.1039 6.87982 55.4306 6.81249 55.7436L5.70969 60.9432ZM-1.04751 57.162L4.95249 59.5248L5.79969 55.5276C5.81657 55.4547 5.80656 55.3781 5.77151 55.312C5.73645 55.2459 5.67871 55.1946 5.60889 55.1676L1.44009 53.532C1.37148 53.5045 1.2953 53.5025 1.22531 53.5262C1.15533 53.55 1.09615 53.598 1.05849 53.6616L-1.04751 57.162Z" fill="#E5E5E5"/>
<path d="M1.62234 30.4992L-5.50806 33.3876C-5.772 32.7387 -5.85338 32.0299 -5.74339 31.338C-5.6334 30.6461 -5.33623 29.9975 -4.88406 29.4624C-4.25829 29.609 -3.60243 29.5574 -3.00726 29.3148C-2.4113 29.0743 -1.90448 28.6551 -1.55646 28.1148C-0.859536 28.1846 -0.194959 28.4436 0.365341 28.8639C0.925641 29.2841 1.36032 29.8497 1.62234 30.4992V30.4992Z" fill="#E5E5E5"/>
<path d="M14.6545 25.2216L7.52407 28.11C7.25997 27.4612 7.17839 26.7525 7.28817 26.0606C7.39794 25.3687 7.69489 24.72 8.14687 24.1848C8.77296 24.3305 9.42876 24.2792 10.0246 24.038C10.6204 23.7968 11.1272 23.3774 11.4757 22.8372C12.1726 22.907 12.8372 23.166 13.3975 23.5863C13.9578 24.0066 14.3925 24.5721 14.6545 25.2216Z" fill="#E5E5E5"/>
<path d="M8.85008 23.6556C10.2418 23.6556 11.3701 22.5274 11.3701 21.1356C11.3701 19.7438 10.2418 18.6156 8.85008 18.6156C7.45832 18.6156 6.33008 19.7438 6.33008 21.1356C6.33008 22.5274 7.45832 23.6556 8.85008 23.6556Z" fill="#E5E5E5"/>
<path d="M3.84011 16.7688L-3.29029 19.6572C-3.55423 19.0083 -3.63561 18.2995 -3.52562 17.6076C-3.41563 16.9157 -3.11846 16.2671 -2.66629 15.732C-2.04051 15.8785 -1.38467 15.8269 -0.789488 15.5844C-0.193327 15.3442 0.313593 14.9249 0.661312 14.3844C1.35824 14.4541 2.02281 14.7132 2.58311 15.1335C3.14341 15.5537 3.5781 16.1193 3.84011 16.7688Z" fill="#E5E5E5"/>
<path d="M-1.96779 15.2028C-0.576035 15.2028 0.552207 14.0745 0.552207 12.6828C0.552207 11.291 -0.576035 10.1628 -1.96779 10.1628C-3.35955 10.1628 -4.48779 11.291 -4.48779 12.6828C-4.48779 14.0745 -3.35955 15.2028 -1.96779 15.2028Z" fill="#E5E5E5"/>
<path d="M1.41716 16.1569L1.16699 16.4777L7.347 21.2974L7.59717 20.9766L1.41716 16.1569Z" fill="#E5E5E5"/>
<path d="M8.24589 25.8821L-0.715332 29.5117L-0.562613 29.8888L8.39861 26.2591L8.24589 25.8821Z" fill="#E5E5E5"/>
<path d="M5.93393 112.48L-11.9995 106.147C-12.0645 106.124 -12.1358 106.158 -12.1587 106.223L-12.5771 107.408C-12.6001 107.473 -12.566 107.544 -12.501 107.567L5.43246 113.9C5.49745 113.923 5.56874 113.889 5.5917 113.824L6.01006 112.639C6.03301 112.574 5.99893 112.503 5.93393 112.48Z" fill="#E5E5E5"/>
<path d="M8.57157 102.522L5.15277 112.2L4.19277 111.862L6.67557 104.832C6.85437 104.305 6.82927 103.73 6.6052 103.221C6.38113 102.711 5.97435 102.304 5.46505 102.08C4.95574 101.855 4.38086 101.83 3.85371 102.008C3.32656 102.187 2.8854 102.556 2.61717 103.044L0.0227678 110.392L-0.960033 110.04L1.63557 102.69C1.72542 102.225 1.66358 101.744 1.45917 101.317C1.33358 101.053 1.15696 100.816 0.939472 100.621C0.721988 100.425 0.467941 100.274 0.191967 100.177C-0.309655 100 -0.858102 100.009 -1.35405 100.201C-1.84999 100.393 -2.26065 100.757 -2.51163 101.226L-5.10723 108.575L-6.09003 108.228L-3.49443 100.878C-3.40572 100.413 -3.46794 99.9314 -3.67203 99.504C-3.7978 99.2401 -3.9745 99.0036 -4.19197 98.8082C-4.40944 98.6127 -4.6634 98.4622 -4.93923 98.3652C-5.49619 98.1686 -6.10845 98.2012 -6.64135 98.456C-7.17424 98.7107 -7.58413 99.1667 -7.78083 99.7236L-10.2636 106.753L-11.2236 106.416L-7.80003 96.738L8.57157 102.522Z" fill="#E5E5E5"/>
<path d="M9.19292 102.144L-8.35708 95.946C-8.40482 95.9294 -8.44609 95.8981 -8.47499 95.8566C-8.5039 95.8151 -8.51896 95.7655 -8.51803 95.715C-8.51709 95.6644 -8.50022 95.6155 -8.46981 95.5751C-8.4394 95.5347 -8.397 95.5049 -8.34868 95.49L-2.45788 93.642C-2.42083 94.6138 -2.09262 95.552 -1.51583 96.3349C-0.93903 97.1178 -0.140265 97.7093 0.776842 98.0327C1.69395 98.3561 2.68707 98.3964 3.62738 98.1484C4.56768 97.9005 5.41176 97.3756 6.05012 96.642L9.47252 101.778C9.5032 101.82 9.51951 101.87 9.51901 101.922C9.51851 101.974 9.50122 102.024 9.46974 102.066C9.43825 102.107 9.39427 102.137 9.34437 102.151C9.29446 102.165 9.24133 102.163 9.19292 102.144V102.144Z" fill="#E5E5E5"/>
<path d="M3.75254 89.6064C2.98987 89.3369 2.16441 89.2996 1.38054 89.4992C0.596678 89.6988 -0.110379 90.1265 -0.651206 90.728C-1.19203 91.3295 -1.54234 92.0778 -1.65781 92.8784C-1.77329 93.679 -1.64876 94.4959 -1.29996 95.2257C-0.951163 95.9556 -0.393769 96.5656 0.301727 96.9786C0.997222 97.3916 1.79958 97.5891 2.60733 97.5461C3.41507 97.5031 4.19192 97.2215 4.83963 96.737C5.48734 96.2524 5.97681 95.5867 6.24614 94.824C6.60689 93.8014 6.54688 92.6774 6.0793 91.699C5.61172 90.7207 4.77483 89.968 3.75254 89.6064V89.6064ZM1.84814 95.6304L1.59614 96.342L1.16534 96.1896L1.40534 95.4984C1.03533 95.3669 0.709469 95.1345 0.464541 94.8276L0.79094 94.4268C1.01884 94.7227 1.32773 94.9462 1.68014 95.07C2.16014 95.2416 2.59334 95.0772 2.73134 94.686C2.86934 94.2948 2.67974 93.9828 2.24534 93.5988C1.64534 93.078 1.32374 92.6112 1.53374 92.016C1.73414 91.4484 2.29094 91.1592 2.95694 91.2792L3.19694 90.588L3.62174 90.738L3.38774 91.4016C3.69933 91.5141 3.97665 91.705 4.19294 91.956L3.86174 92.346C3.65568 92.0992 3.38589 91.9137 3.08174 91.8096C2.55494 91.6236 2.24174 91.8684 2.14814 92.142C2.02814 92.502 2.21294 92.7648 2.72174 93.222C3.32174 93.7584 3.55454 94.2396 3.33974 94.8492C3.14894 95.3892 2.59334 95.76 1.84814 95.6304Z" fill="#E5E5E5"/>
<path d="M56.5536 68.1036C56.1722 68.1039 55.7992 67.991 55.4819 67.7792C55.1647 67.5675 54.9173 67.2664 54.7712 66.914C54.625 66.5617 54.5867 66.1739 54.6609 65.7998C54.7352 65.4256 54.9188 65.0819 55.1884 64.8121C55.4581 64.5423 55.8017 64.3585 56.1758 64.284C56.5499 64.2095 56.9377 64.2476 57.2901 64.3935C57.6426 64.5394 57.9438 64.7866 58.1557 65.1037C58.3677 65.4209 58.4808 65.7938 58.4808 66.1752C58.4805 66.6864 58.2774 67.1765 57.9161 67.538C57.5548 67.8996 57.0648 68.103 56.5536 68.1036Z" fill="#E5E5E5"/>
<path d="M66.878 55.7041L56.0508 66.5314L56.3681 66.8487L67.1954 56.0215L66.878 55.7041Z" fill="#E5E5E5"/>
<path d="M64.0679 60.24L62.7023 61.6056C63.9083 63.2163 64.4371 65.2346 64.1757 67.2297C63.9144 69.2248 62.8836 71.0388 61.3035 72.2846C59.7233 73.5303 57.7189 74.1092 55.7179 73.8976C53.7168 73.6861 51.8777 72.7009 50.593 71.1523C49.3082 69.6037 48.6796 67.6143 48.8411 65.6086C49.0027 63.6029 49.9418 61.7399 51.4579 60.4169C52.974 59.0939 54.9471 58.4159 56.9562 58.5274C58.9653 58.639 60.8512 59.5313 62.2115 61.014L63.5675 59.658C61.8623 57.8288 59.5079 56.741 57.0097 56.6283C54.5115 56.5155 52.0687 57.3867 50.2056 59.0548C48.3425 60.7229 47.2077 63.055 47.0447 65.5504C46.8818 68.0459 47.7037 70.5057 49.3341 72.4019C50.9645 74.2982 53.2733 75.4796 55.7649 75.6926C58.2566 75.9056 60.7325 75.1333 62.661 73.5414C64.5896 71.9494 65.8172 69.6648 66.0802 67.1779C66.3433 64.691 65.6208 62.2002 64.0679 60.24V60.24Z" fill="#E5E5E5"/>
<path d="M61.3307 62.9712L59.9387 64.3644C60.2391 64.921 60.3959 65.5439 60.3947 66.1764C60.3964 67.0814 60.079 67.958 59.4982 68.6521C58.9174 69.3461 58.1105 69.8131 57.2193 69.9709C56.3282 70.1287 55.41 69.9672 54.6262 69.5148C53.8424 69.0624 53.2432 68.3481 52.934 67.4976C52.6249 66.647 52.6256 65.7147 52.936 64.8646C53.2464 64.0145 53.8467 63.3011 54.6312 62.8499C55.4157 62.3987 56.3341 62.2386 57.225 62.3978C58.1159 62.5569 58.9221 63.0251 59.5019 63.72L60.8579 62.3652C59.871 61.2581 58.4925 60.5778 57.0135 60.4678C55.5344 60.3579 54.0705 60.8269 52.9307 61.776C51.791 62.725 51.0646 64.0798 50.9049 65.5543C50.7451 67.0288 51.1646 68.5077 52.0746 69.6788C52.9847 70.8498 54.3142 71.6215 55.7825 71.8308C57.2508 72.0402 58.743 71.6708 59.9441 70.8007C61.1452 69.9307 61.9612 68.6279 62.2199 67.1675C62.4786 65.7071 62.1598 64.2034 61.3307 62.9736V62.9712Z" fill="#E5E5E5"/>
<path d="M68.5694 56.7058L64.9243 57.7023L65.0253 58.0715L68.6703 57.075L68.5694 56.7058Z" fill="#E5E5E5"/>
<path d="M67.4848 58.2211L63.3491 59.3153L63.447 59.6854L67.5827 58.5911L67.4848 58.2211Z" fill="#E5E5E5"/>
<path d="M110.31 44.628L108.63 47.5344C108.264 47.302 108.002 46.9372 107.899 46.5163C107.796 46.0955 107.86 45.651 108.077 45.2759C108.293 44.9008 108.647 44.6239 109.063 44.5032C109.479 44.3824 109.926 44.4272 110.31 44.628Z" fill="#E5E5E5"/>
<path d="M8.72525 5.82117L10.5468 8.63997C10.362 8.77235 10.1522 8.86584 9.93013 8.91476C9.70808 8.96368 9.47841 8.96702 9.25503 8.92457C9.03165 8.88212 8.81922 8.79477 8.63059 8.66781C8.44197 8.54084 8.28107 8.37691 8.15766 8.18595C8.03425 7.99498 7.95089 7.78094 7.91263 7.55681C7.87437 7.33268 7.882 7.10311 7.93507 6.88202C7.98813 6.66092 8.08553 6.4529 8.22135 6.27055C8.35718 6.0882 8.5286 5.93532 8.72525 5.82117V5.82117Z" fill="#E5E5E5"/>
<path d="M23.2895 66.3684L19.9799 66.9228C19.9303 66.4948 20.047 66.0641 20.306 65.7197C20.5649 65.3753 20.9462 65.1435 21.3712 65.0723C21.7962 65.0012 22.2322 65.096 22.5892 65.3372C22.9463 65.5784 23.197 65.9476 23.2895 66.3684V66.3684Z" fill="#E5E5E5"/>
<path d="M60.5102 16.848L60.4814 17.8968L61.3298 18.5148L60.323 18.8124L59.9978 19.8096L59.4038 18.9444L58.355 18.942L58.9946 18.1104L58.6718 17.112L59.6606 17.4636L60.5102 16.848Z" fill="#E5E5E5"/>
<path d="M95.7623 103.02L96.637 103.598L97.6102 103.206L97.3307 104.216L98.0051 105.02L96.9562 105.067L96.4007 105.956L96.0323 104.974L95.0146 104.72L95.8355 104.066L95.7623 103.02Z" fill="#E5E5E5"/>
<path d="M15.4019 103.67L16.2779 104.25L17.2499 103.856L16.9703 104.868L17.6447 105.672L16.5959 105.718L16.0403 106.608L15.6719 105.625L14.6543 105.371L15.4751 104.718L15.4019 103.67Z" fill="#E5E5E5"/>
<path d="M44.5332 95.7L45.2508 98.3796L47.2116 96.4176L44.5332 95.7Z" fill="#E5E5E5"/>
<path d="M74.9449 73.0044L75.7189 70.3416L73.0249 71.0028L74.9449 73.0044Z" fill="#E5E5E5"/>
<path d="M107.484 3.49677L106.917 6.21117L109.551 5.34477L107.484 3.49677Z" fill="#E5E5E5"/>
<path d="M8.45857 40.8192L6.95257 38.49L5.68896 40.9584L8.45857 40.8192Z" fill="#E5E5E5"/>
<path d="M38.2154 70.4488L37.9897 70.5306L39.1696 73.7828L39.3952 73.701L38.2154 70.4488Z" fill="#E5E5E5"/>
<path d="M40.2775 71.4121L37.0264 72.5948L37.1084 72.8203L40.3596 71.6376L40.2775 71.4121Z" fill="#E5E5E5"/>
<path d="M22.8115 20.5145L22.5859 20.5963L23.7658 23.8485L23.9914 23.7667L22.8115 20.5145Z" fill="#E5E5E5"/>
<path d="M24.8732 21.4788L21.6221 22.6615L21.7041 22.887L24.9553 21.7044L24.8732 21.4788Z" fill="#E5E5E5"/>
<path d="M40.1022 110.946L40.0488 111.18L43.4218 111.95L43.4752 111.716L40.1022 110.946Z" fill="#E5E5E5"/>
<path d="M42.0299 109.733L41.2593 113.105L41.4933 113.159L42.2638 109.786L42.0299 109.733Z" fill="#E5E5E5"/>
<path d="M105.635 113.953L105.41 114.034L106.59 117.287L106.815 117.205L105.635 113.953Z" fill="#E5E5E5"/>
<path d="M107.698 114.914L104.447 116.096L104.529 116.322L107.78 115.139L107.698 114.914Z" fill="#E5E5E5"/>
<path d="M78.1641 86.4196L77.9385 86.5015L79.1183 89.7537L79.3439 89.6718L78.1641 86.4196Z" fill="#E5E5E5"/>
<path d="M80.2282 87.3785L76.9771 88.5612L77.0591 88.7868L80.3103 87.6041L80.2282 87.3785Z" fill="#E5E5E5"/>
<path d="M82.8125 47.0031L82.5869 47.0849L83.7668 50.3371L83.9924 50.2553L82.8125 47.0031Z" fill="#E5E5E5"/>
<path d="M84.8747 47.9655L81.6235 49.1481L81.7056 49.3737L84.9567 48.191L84.8747 47.9655Z" fill="#E5E5E5"/>
<path d="M98.3998 71.592C98.3867 71.5919 98.3737 71.5895 98.3614 71.5848C98.3314 71.5747 98.3066 71.5531 98.2925 71.5248C98.2783 71.4964 98.2759 71.4637 98.2858 71.4336L101.533 61.6128C101.543 61.5826 101.564 61.5575 101.593 61.5431C101.621 61.5287 101.654 61.5261 101.684 61.536C101.699 61.5409 101.713 61.5487 101.725 61.559C101.737 61.5694 101.747 61.582 101.754 61.5962C101.762 61.6103 101.766 61.6258 101.767 61.6416C101.768 61.6574 101.766 61.6733 101.761 61.6884L98.5126 71.5092C98.5048 71.5331 98.4898 71.5539 98.4695 71.5687C98.4493 71.5836 98.4249 71.5917 98.3998 71.592V71.592Z" fill="#E5E5E5"/>
<path d="M101.678 67.02C101.665 67.02 101.652 67.0175 101.64 67.0128C101.61 67.0029 101.585 66.9815 101.571 66.9531C101.556 66.9248 101.554 66.8919 101.564 66.8616L103.124 62.1408C103.128 62.1259 103.136 62.112 103.147 62.1001C103.157 62.0882 103.17 62.0784 103.184 62.0713C103.198 62.0642 103.213 62.06 103.229 62.0588C103.245 62.0577 103.26 62.0597 103.275 62.0646C103.29 62.0696 103.304 62.0775 103.316 62.0878C103.328 62.0981 103.338 62.1107 103.345 62.1248C103.352 62.1388 103.356 62.1542 103.357 62.1699C103.358 62.1857 103.356 62.2015 103.352 62.2164L101.792 66.9372C101.784 66.9613 101.768 66.9822 101.748 66.9971C101.727 67.012 101.703 67.02 101.678 67.02Z" fill="#E5E5E5"/>
<path d="M99.9913 72.12C99.979 72.1217 99.9665 72.1217 99.9541 72.12C99.939 72.1151 99.9251 72.1072 99.913 72.0969C99.901 72.0866 99.8911 72.074 99.8839 72.0598C99.8768 72.0456 99.8725 72.0302 99.8714 72.0143C99.8703 71.9985 99.8723 71.9826 99.8773 71.9675L100.873 68.9567C100.883 68.9267 100.905 68.902 100.933 68.8878C100.962 68.8736 100.994 68.8712 101.025 68.8811C101.055 68.891 101.08 68.9125 101.094 68.9408C101.109 68.9692 101.111 69.0021 101.101 69.0323L100.105 72.0432C100.097 72.0661 100.081 72.0858 100.06 72.0995C100.04 72.1132 100.016 72.1204 99.9913 72.12V72.12Z" fill="#E5E5E5"/>
<path d="M47.8331 53.73C47.8036 53.7302 47.7751 53.7196 47.753 53.7001C47.7308 53.6806 47.7166 53.6537 47.7131 53.6244L46.5047 43.3512C46.501 43.3194 46.5102 43.2874 46.5301 43.2623C46.55 43.2372 46.5791 43.2211 46.6109 43.2174C46.6427 43.2137 46.6747 43.2229 46.6998 43.2428C46.7249 43.2627 46.741 43.2918 46.7447 43.3236L47.9531 53.5968C47.9549 53.6125 47.9537 53.6284 47.9493 53.6436C47.945 53.6588 47.9378 53.673 47.9279 53.6853C47.9181 53.6977 47.906 53.708 47.8922 53.7157C47.8784 53.7234 47.8632 53.7282 47.8475 53.73H47.8331Z" fill="#E5E5E5"/>
<path d="M46.1628 53.9268C46.1333 53.927 46.1048 53.9163 46.0826 53.8969C46.0605 53.8774 46.0463 53.8504 46.0428 53.8212L45.4608 48.8832C45.4589 48.8675 45.4602 48.8516 45.4645 48.8364C45.4688 48.8212 45.4761 48.807 45.4859 48.7947C45.4957 48.7823 45.5079 48.772 45.5217 48.7643C45.5355 48.7566 45.5507 48.7518 45.5664 48.75C45.5979 48.7462 45.6296 48.7551 45.6545 48.7747C45.6795 48.7943 45.6957 48.8229 45.6996 48.8544L46.2804 53.7924C46.2822 53.8081 46.2809 53.824 46.2766 53.8391C46.2723 53.8543 46.265 53.8685 46.2552 53.8809C46.2454 53.8933 46.2333 53.9036 46.2195 53.9113C46.2056 53.9189 46.1905 53.9238 46.1748 53.9256L46.1628 53.9268Z" fill="#E5E5E5"/>
<path d="M45.3242 46.8C45.2945 46.8002 45.2658 46.7893 45.2437 46.7696C45.2215 46.7499 45.2074 46.7227 45.2042 46.6932L44.8334 43.5444C44.8296 43.5126 44.8385 43.4805 44.8583 43.4553C44.8782 43.4301 44.9072 43.4138 44.939 43.41C44.9708 43.4062 45.0028 43.4151 45.028 43.4349C45.0533 43.4547 45.0696 43.4838 45.0734 43.5156L45.4442 46.6656C45.446 46.6813 45.4447 46.6972 45.4404 46.7124C45.4361 46.7275 45.4288 46.7417 45.419 46.7541C45.4092 46.7665 45.3971 46.7768 45.3833 46.7845C45.3695 46.7921 45.3543 46.797 45.3386 46.7988L45.3242 46.8Z" fill="#E5E5E5"/>
<path d="M79.6838 17.0616L77.5694 14.6616L75.455 17.0616L73.3394 14.6616L71.3138 16.9596L71.1338 16.8L73.3394 14.2992L75.455 16.6992L77.5694 14.298L79.6838 16.698L81.7982 14.298L84.0014 16.8012L83.8214 16.9596L81.7982 14.6616L79.6838 17.0616Z" fill="#E5E5E5"/>
<path d="M74.0254 112.256L73.3198 108.997L76.5058 108.718L75.8278 105.592L79.015 105.312L78.3358 102.187L81.6574 101.897L81.679 102.136L78.6286 102.402L79.3066 105.527L76.1206 105.806L76.7986 108.932L73.6114 109.212L74.2606 112.206L74.0254 112.256Z" fill="#E5E5E5"/>
</g>
<defs>
<clipPath id="clip0">
<rect width="120" height="120" fill="white"/>
</clipPath>
</defs>
</svg>
