<svg width="53" height="47" viewBox="0 0 53 47" fill="none" xmlns="http://www.w3.org/2000/svg">
<path fill-rule="evenodd" clip-rule="evenodd" d="M5.69571 0.175519C1.82651 0.176187 -0.600483 4.34536 1.33431 7.66768L22.3126 43.6905C24.2414 47.0025 29.0616 46.9889 30.996 43.6659L51.9701 7.63587C53.9045 4.31286 51.5054 0.167618 47.6481 0.168283L5.69571 0.175519ZM21.5833 21.2748C20.3867 21.2748 19.4166 20.3047 19.4166 19.1081V14.7279H16.1818C14.9768 14.7279 14 13.7511 14 12.5461C14 11.3411 14.9768 10.3643 16.1818 10.3643H19.4166V8.16665C19.4166 6.97004 20.3867 5.99999 21.5833 5.99999C22.7799 5.99999 23.75 6.97004 23.75 8.16665V10.3643H30.2499V8.16665C30.2499 6.97004 31.2199 5.99999 32.4165 5.99999C33.6132 5.99999 34.5832 6.97004 34.5832 8.16665V10.3643H37.8182C39.0232 10.3643 40 11.3411 40 12.5461C40 13.7511 39.0232 14.7279 37.8182 14.7279H34.5832V19.1081C34.5832 20.3047 33.6132 21.2748 32.4165 21.2748C31.2199 21.2748 30.2499 20.3047 30.2499 19.1081V14.7279H23.75V19.1081C23.75 20.3047 22.7799 21.2748 21.5833 21.2748ZM16.7073 24.4751C17.3504 23.5771 18.5997 23.3704 19.4978 24.0135C21.5635 25.4927 22.9909 26.5119 24.1517 27.1769C25.2929 27.8306 25.9486 28.0032 26.4583 28.0032C26.968 28.0032 27.6238 27.8306 28.765 27.1768C29.9257 26.5119 31.3532 25.4927 33.419 24.0135C34.317 23.3704 35.5664 23.5771 36.2095 24.4751C36.8525 25.3732 36.6458 26.6226 35.7478 27.2656L35.6598 27.3287L35.6597 27.3287C33.7033 28.7297 32.1112 29.8697 30.7533 30.6477C29.3554 31.4485 27.9799 32.0032 26.4583 32.0032C24.9367 32.0032 23.5613 31.4485 22.1634 30.6477C20.8054 29.8697 19.2134 28.7297 17.257 27.3287L17.257 27.3286L17.169 27.2656C16.2709 26.6225 16.0642 25.3732 16.7073 24.4751Z" fill="white"/>
</svg>
