<svg width="52" height="46" viewBox="0 0 52 46" fill="none" xmlns="http://www.w3.org/2000/svg">
<path fill-rule="evenodd" clip-rule="evenodd" d="M5.04111 0.00723638C1.17192 0.00790377 -1.25508 4.17708 0.67971 7.4994L21.658 43.5222C23.5868 46.8343 28.407 46.8206 30.3414 43.4976L51.3155 7.46758C53.2499 4.14458 50.8508 -0.000665253 46.9935 8.00818e-08L5.04111 0.00723638ZM20.9287 21.1065C19.7321 21.1065 18.762 20.1365 18.762 18.9399V14.5596H15.5272C14.3222 14.5596 13.3454 13.5828 13.3454 12.3778C13.3454 11.1728 14.3222 10.196 15.5272 10.196H18.762V7.99838C18.762 6.80177 19.7321 5.83172 20.9287 5.83172C22.1253 5.83172 23.0954 6.80177 23.0954 7.99838V10.196H29.5953V7.99838C29.5953 6.80177 30.5653 5.83172 31.7619 5.83172C32.9586 5.83172 33.9286 6.80177 33.9286 7.99838V10.196H37.1636C38.3686 10.196 39.3454 11.1728 39.3454 12.3778C39.3454 13.5828 38.3686 14.5596 37.1636 14.5596H33.9286V18.9399C33.9286 20.1365 32.9586 21.1065 31.7619 21.1065C30.5653 21.1065 29.5953 20.1365 29.5953 18.9399V14.5596H23.0954V18.9399C23.0954 20.1365 22.1253 21.1065 20.9287 21.1065ZM16.0527 24.3069C16.6958 23.4088 17.9451 23.2021 18.8432 23.8452C20.9089 25.3244 22.3364 26.3436 23.4971 27.0086C24.6383 27.6623 25.2941 27.8349 25.8037 27.8349C26.3134 27.8349 26.9692 27.6623 28.1104 27.0086C29.2712 26.3436 30.6987 25.3244 32.7644 23.8452C33.6624 23.2021 34.9118 23.4088 35.5549 24.3069C36.1979 25.2049 35.9912 26.4543 35.0932 27.0974L35.0052 27.1604L35.0051 27.1604L35.0051 27.1605C33.0486 28.5614 31.4566 29.7015 30.0987 30.4794C28.7008 31.2802 27.3253 31.8349 25.8037 31.8349C24.2821 31.8349 22.9067 31.2802 21.5088 30.4794C20.1508 29.7015 18.5588 28.5614 16.6024 27.1604L16.6024 27.1604L16.5144 27.0974C15.6163 26.4543 15.4096 25.2049 16.0527 24.3069Z" fill="#0000E6"/>
</svg>
